<?xml version="1.0" encoding="utf-8"?>
<!-- Generator: Adobe Illustrator 15.1.0, SVG Export Plug-In . SVG Version: 6.00 Build 0)  -->
<!DOCTYPE svg PUBLIC "-//W3C//DTD SVG 1.1//EN" "http://www.w3.org/Graphics/SVG/1.1/DTD/svg11.dtd">
<svg version="1.1" id="Layer_1" xmlns="http://www.w3.org/2000/svg" xmlns:xlink="http://www.w3.org/1999/xlink" x="0px" y="0px"
	 width="283.465px" height="69.812px" viewBox="0 35.361 283.465 69.812" enable-background="new 0 35.361 283.465 69.812"
	 xml:space="preserve">
<g>
	<path fill="#CCC2B6" d="M269.979,86.692c0,0.567-0.002,0.31-0.004-0.042C269.975,86.665,269.979,86.679,269.979,86.692
		 M206.54,65.089c0-0.061,0.029-0.174,0.093-0.342c0.059-0.166,0.12-0.342,0.181-0.523c0.059-0.183,0.123-0.35,0.184-0.502
		c0.06-0.15,0.104-0.243,0.136-0.272c0.062-0.062,0.113-0.137,0.159-0.23c0.047-0.089,0.084-0.165,0.114-0.226
		c0.121-0.244,0.341-0.449,0.66-0.617c0.319-0.165,0.633-0.264,0.935-0.296c0.125,0,0.184,0.077,0.184,0.229
		c-0.032,0.182-0.1,0.372-0.206,0.568c-0.107,0.198-0.191,0.328-0.249,0.388c-0.063,0.091-0.094,0.153-0.094,0.183
		c0,0.03-0.014,0.059-0.046,0.09c-0.031,0.032-0.089,0.1-0.182,0.207c-0.091,0.107-0.242,0.265-0.453,0.479
		c-0.031,0.03-0.122,0.098-0.277,0.205c-0.15,0.105-0.311,0.213-0.479,0.318c-0.166,0.107-0.317,0.198-0.453,0.272
		C206.611,65.096,206.54,65.12,206.54,65.089 M200.271,72.152c-0.104,0.305-0.223,0.549-0.363,0.73
		c-0.135,0.181-0.294,0.326-0.478,0.434c-0.182,0.104-0.411,0.25-0.684,0.431c0,0.032-0.084,0.085-0.248,0.159
		c-0.17,0.077-0.434,0.116-0.801,0.116c-0.15,0-0.363-0.122-0.638-0.363c-0.273-0.245-0.517-0.533-0.729-0.868
		c-0.062-0.242-0.119-0.402-0.183-0.479c-0.062-0.075-0.121-0.233-0.181-0.478c-0.032-0.152-0.055-0.233-0.067-0.251
		c-0.015-0.015-0.032-0.021-0.046-0.021c-0.019,0-0.033-0.017-0.048-0.046c-0.016-0.03-0.039-0.166-0.067-0.411
		c-0.029-0.151-0.029-0.371,0-0.661c0.028-0.288,0.044-0.491,0.044-0.613c0,0.061,0.106,0.136,0.32,0.228
		c0.213,0.091,0.455,0.198,0.729,0.318c0.273,0.123,0.524,0.22,0.75,0.298c0.229,0.075,0.373,0.113,0.435,0.113
		c0.334-0.061,0.683-0.143,1.047-0.249c0.365-0.107,0.747-0.19,1.141-0.251c0.153,0,0.256,0.061,0.319,0.182
		c0.059,0.122,0.073,0.258,0.044,0.41C200.48,71.425,200.379,71.849,200.271,72.152 M281.215,44.078
		c-0.197-0.181-0.439-0.31-0.729-0.386c-0.288-0.076-0.594-0.122-0.912-0.138c-0.318-0.014-0.602-0.022-0.844-0.022
		c-0.759,0-1.543,0.03-2.345,0.092c-0.807,0.062-1.573,0.212-2.302,0.454c-0.275,0-0.594,0.054-0.955,0.161
		c-0.366,0.106-0.581,0.13-0.64,0.067c-0.247,0.031-0.589,0.068-1.026,0.115c-0.441,0.046-0.941,0.099-1.504,0.159
		c-0.565,0.062-1.157,0.145-1.778,0.25c-0.624,0.106-1.222,0.22-1.8,0.343c-0.636,0.333-1.338,0.51-2.098,0.524
		c-0.759,0.015-1.445,0.129-2.049,0.341c-0.093,0.091-0.283,0.167-0.57,0.228c-0.287,0.061-0.607,0.114-0.957,0.159
		c-0.351,0.047-0.707,0.1-1.071,0.159c-0.365,0.062-0.671,0.107-0.911,0.138c-0.061,0-0.341,0.022-0.844,0.068
		c-0.5,0.045-0.949,0.145-1.343,0.297c-0.245,0-0.38-0.045-0.411-0.136c-0.031-0.092-0.05-0.168-0.05-0.229
		c0-0.183,0.073-0.35,0.206-0.502c0.139-0.152,0.223-0.318,0.255-0.501c0.15-0.302,0.286-0.615,0.408-0.934
		c0.122-0.318,0.216-0.616,0.271-0.889c0.033-0.061,0-0.219-0.091-0.479c-0.088-0.256-0.239-0.417-0.453-0.478h-0.546
		c-0.213,0-0.405,0.062-0.571,0.182c-0.165,0.124-0.319,0.259-0.455,0.411c-0.138,0.153-0.243,0.296-0.317,0.433
		c-0.078,0.136-0.134,0.222-0.164,0.252c-0.025,0-0.133,0.114-0.315,0.34c-0.185,0.229-0.375,0.479-0.569,0.753
		c-0.2,0.273-0.381,0.532-0.548,0.775c-0.168,0.244-0.252,0.379-0.252,0.41c-0.058,0.152-0.183,0.374-0.364,0.66
		c-0.182,0.291-0.304,0.479-0.361,0.571c-0.065,0.456-0.32,0.829-0.775,1.116c-0.456,0.29-0.979,0.54-1.575,0.752
		c-0.593,0.212-1.163,0.394-1.707,0.547c-0.548,0.152-0.928,0.304-1.142,0.454c-0.118,0.123-0.293,0.236-0.523,0.342
		c-0.227,0.108-0.464,0.199-0.705,0.275c-0.246,0.076-0.454,0.137-0.637,0.181c-0.183,0.045-0.29,0.069-0.32,0.069
		c-0.243,0.121-0.51,0.206-0.8,0.25c-0.287,0.045-0.432,0.145-0.432,0.297s0.039,0.328,0.116,0.524
		c0.072,0.198,0.219,0.295,0.432,0.295c0.606,0,1.148-0.12,1.615-0.364c0.473-0.242,0.828-0.409,1.074-0.501
		c0.697-0.365,1.366-0.638,2.006-0.821c0.637-0.183,1.092-0.273,1.363-0.273c-0.301,0.7-0.543,1.239-0.727,1.62
		c-0.184,0.379-0.631,1.759-0.738,2.355c-0.14,0.753-0.207,1.707-0.174,1.95c0,0.609-0.123,1.252-0.364,1.937
		c-0.242,0.685-0.473,1.33-0.685,1.938c0,0.546-0.09,1.094-0.273,1.641c-0.182,0.545-0.332,1.093-0.454,1.64
		c-0.062,0.456-0.112,0.888-0.162,1.299c-0.043,0.411-0.097,0.827-0.157,1.253c-0.031,0.153-0.091,0.304-0.183,0.455
		c-0.033,0.059-0.029,0.13-0.051,0.191c-0.048,0.024-0.079,0.063-0.13,0.083c0,0.031-0.085,0.129-0.254,0.296
		c-0.164,0.167-0.265,0.267-0.295,0.298c-0.152,0.15-0.312,0.279-0.479,0.384c-0.168,0.108-0.341,0.206-0.521,0.297
		c-0.155,0.154-0.323,0.297-0.504,0.433c-0.184,0.138-0.366,0.295-0.549,0.479c-0.029,0-0.049,0.008-0.066,0.023
		c-0.017,0.015-0.038,0.022-0.067,0.022c-0.035,0.032-0.078,0.046-0.137,0.046c-0.242,0.152-0.5,0.312-0.774,0.479
		c-0.276,0.166-0.549,0.25-0.822,0.25c-0.212,0.03-0.403,0.077-0.568,0.136c-0.168,0.062-0.343,0.092-0.525,0.092
		c-0.121,0-0.229-0.005-0.318-0.024c-0.092-0.014-0.182-0.068-0.273-0.158c-0.031-0.152-0.158-0.244-0.387-0.274
		c-0.23-0.029-0.372-0.12-0.435-0.273c-0.062-0.03-0.129-0.143-0.204-0.34c-0.08-0.199-0.114-0.312-0.114-0.344l-0.41-0.41
		c-0.062-0.06-0.12-0.205-0.183-0.434c-0.062-0.226-0.107-0.371-0.137-0.431c-0.181-0.426-0.379-0.843-0.592-1.255
		c-0.213-0.41-0.44-0.78-0.687-1.115c-0.15-0.214-0.258-0.485-0.314-0.82c-0.064-0.334-0.172-0.578-0.322-0.729
		c-0.06-0.121-0.135-0.206-0.224-0.25c-0.094-0.046-0.17-0.101-0.23-0.16h-0.502c-0.15,0.122-0.273,0.198-0.365,0.228
		c-0.088,0.031-0.181,0.061-0.273,0.09c-0.058,0.061-0.129,0.137-0.203,0.228c-0.075,0.092-0.146,0.167-0.207,0.229
		c-0.06,0.06-0.107,0.089-0.134,0.089c-0.031,0-0.062,0.017-0.094,0.045c-0.03,0.154-0.044,0.306-0.044,0.458
		s-0.031,0.303-0.093,0.456c-0.029,0.122-0.059,0.236-0.089,0.343c-0.032,0.104-0.092,0.234-0.184,0.386
		c0,0.486-0.167,1.019-0.503,1.596c-0.334,0.577-0.712,1.047-1.139,1.412c-0.031,0-0.068,0.016-0.114,0.044
		c-0.044,0.032-0.082,0.048-0.113,0.048c-0.151,0-0.249-0.092-0.296-0.274c-0.043-0.183-0.069-0.319-0.069-0.411
		c-0.031-0.151-0.023-0.28,0.026-0.388c0.043-0.105,0.082-0.219,0.112-0.341c0-0.061,0.02-0.181,0.068-0.364
		c0.043-0.183,0.066-0.304,0.066-0.366c0.123-0.365,0.212-0.751,0.275-1.161c0.062-0.411,0.12-0.783,0.181-1.117
		c0-0.06-0.007-0.106-0.022-0.138c-0.013-0.028-0.023-0.058-0.023-0.089c0-0.061,0.046-0.213,0.136-0.457
		c-0.12-0.21-0.195-0.342-0.227-0.386c-0.031-0.046-0.138-0.055-0.319-0.024c-0.242,0-0.423,0.038-0.544,0.114
		c-0.124,0.077-0.258,0.144-0.414,0.206c-0.152,0-0.226,0.031-0.226,0.091c0,0.062-0.046,0.13-0.138,0.206
		c-0.092,0.076-0.135,0.144-0.135,0.205c-0.062,0.06-0.114,0.099-0.162,0.114c-0.043,0.015-0.097,0.054-0.157,0.114
		c0,0.063-0.046,0.198-0.14,0.41c-0.091,0.214-0.134,0.351-0.134,0.411l-0.182,0.136c-0.154,0.305-0.259,0.57-0.324,0.799
		c-0.059,0.227-0.09,0.493-0.09,0.797c0,0.061-0.036,0.144-0.114,0.25c-0.073,0.108-0.142,0.207-0.203,0.296
		c0,0.045,0.008,0.09,0.008,0.133c-0.081,0.081-0.165,0.164-0.256,0.255c-0.107,0.107-0.214,0.204-0.321,0.295
		c-0.107,0.091-0.175,0.138-0.203,0.138c-0.062,0.061-0.176,0.151-0.345,0.272c-0.164,0.121-0.263,0.182-0.296,0.182
		c-0.21,0.062-0.387,0.158-0.522,0.297c-0.138,0.137-0.25,0.235-0.341,0.295c-0.338,0.273-0.672,0.554-1.006,0.842
		c-0.333,0.291-0.756,0.434-1.274,0.434c-0.245,0.031-0.531-0.014-0.864-0.138c-0.336-0.119-0.624-0.272-0.868-0.454
		c-0.15-0.184-0.235-0.296-0.252-0.343c-0.013-0.047-0.049-0.142-0.114-0.295c-0.028,0.029-0.089-0.03-0.18-0.184
		c-0.091-0.152-0.186-0.288-0.271-0.411c-0.064-0.241-0.133-0.499-0.208-0.774c-0.075-0.272-0.157-0.531-0.249-0.773l-0.092-0.776
		c-0.184-0.395-0.448-0.599-0.799-0.615c-0.349-0.015-0.646,0.023-0.887,0.114c-0.092,0.062-0.184,0.167-0.274,0.319
		c-0.09,0.152-0.168,0.303-0.23,0.456c-0.089,0.244-0.131,0.402-0.131,0.478c0,0.077-0.064,0.192-0.188,0.345
		c-0.09,0.15-0.212,0.317-0.361,0.498c-0.155,0.183-0.307,0.343-0.457,0.48c-0.152,0.136-0.335,0.281-0.549,0.432
		c-0.06,0.062-0.157,0.101-0.296,0.115c-0.135,0.016-0.202-0.008-0.202-0.068c-0.244-0.821-0.337-1.36-0.274-1.619
		c0.06-0.259,0.105-0.417,0.138-0.478c-0.032-0.607,0.073-1.016,0.317-1.229c0.061-0.152,0.068-0.335,0.021-0.547
		c-0.044-0.214,0.084-0.44,0.39-0.684c0.151-0.152,0.266-0.279,0.341-0.387c0.074-0.106,0.153-0.205,0.226-0.296
		c0.078-0.092,0.177-0.167,0.298-0.229c0.122-0.06,0.306-0.135,0.545-0.228c0.151-0.06,0.254-0.083,0.298-0.069
		c0.047,0.017,0.083,0.039,0.115,0.069c0.027,0.031,0.077,0.047,0.135,0.047c0.063,0,0.184-0.031,0.364-0.093
		c0.244-0.06,0.379-0.127,0.409-0.206c0.032-0.075,0.032-0.278,0-0.614c-0.118-0.244-0.36-0.439-0.726-0.592
		c-0.365-0.152-0.668-0.258-0.911-0.318c-0.122,0.029-0.312,0.112-0.569,0.25c-0.259,0.136-0.524,0.296-0.802,0.479
		c-0.272,0.181-0.498,0.372-0.681,0.568c-0.183,0.199-0.243,0.373-0.183,0.526c0,0.12-0.087,0.234-0.251,0.342
		c-0.168,0.107-0.282,0.202-0.342,0.295c-0.122,0.123-0.218,0.282-0.296,0.479c-0.078,0.198-0.153,0.404-0.229,0.615
		c-0.075,0.214-0.144,0.405-0.203,0.57c-0.061,0.167-0.136,0.265-0.228,0.296c-0.092,0.152-0.153,0.282-0.182,0.388
		c-0.032,0.108-0.047,0.205-0.047,0.297c0,0.09-0.009,0.182-0.023,0.273c-0.016,0.091-0.066,0.229-0.16,0.411v0.198
		c-0.078,0.067-0.16,0.136-0.251,0.212c-0.103,0.09-0.212,0.167-0.316,0.228c-0.105,0.062-0.175,0.09-0.205,0.09
		c-0.062,0.061-0.176,0.155-0.344,0.275c-0.168,0.121-0.265,0.182-0.293,0.182c-0.216,0.063-0.392,0.137-0.528,0.228
		c-0.136,0.092-0.247,0.168-0.342,0.227c-0.332,0.275-0.676,0.458-1.022,0.548c-0.352,0.091-0.784,0.138-1.302,0.138
		c-0.24,0.031-0.532-0.007-0.865-0.115c-0.333-0.106-0.622-0.25-0.865-0.434c-0.027,0-0.076-0.051-0.137-0.159
		c-0.061-0.105-0.131-0.219-0.204-0.342c-0.077-0.12-0.146-0.242-0.204-0.364c-0.061-0.122-0.106-0.197-0.136-0.228
		c-0.095-0.151-0.172-0.234-0.23-0.251c-0.061-0.013-0.106-0.021-0.137-0.021c-0.029,0-0.044-0.023-0.044-0.069v-0.432
		c-0.03-0.183,0.085-0.349,0.343-0.503c0.258-0.152,0.491-0.273,0.702-0.365c0.213-0.18,0.389-0.333,0.527-0.456
		c0.137-0.12,0.268-0.234,0.385-0.339c0.123-0.108,0.213-0.176,0.276-0.207c0.12-0.091,0.295-0.228,0.521-0.411
		c0.229-0.183,0.375-0.378,0.434-0.593v-0.044c0.151-0.212,0.266-0.374,0.341-0.479c0.077-0.106,0.137-0.212,0.187-0.319
		c0.043-0.106,0.097-0.219,0.157-0.341c0.062-0.123,0.15-0.305,0.272-0.547c0.061-0.062,0.09-0.167,0.09-0.319
		c0-0.031-0.015-0.13-0.042-0.297c-0.033-0.167-0.069-0.333-0.118-0.501c-0.044-0.166-0.082-0.326-0.111-0.478
		c-0.028-0.152-0.044-0.242-0.044-0.273c0-0.031-0.031-0.075-0.092-0.137c-0.033-0.03-0.065-0.046-0.093-0.046
		c-0.181-0.303-0.382-0.485-0.591-0.546c-0.214-0.062-0.457-0.106-0.73-0.138c-0.152-0.03-0.334-0.007-0.546,0.069
		c-0.214,0.076-0.395,0.176-0.546,0.296c-0.307,0.152-0.685,0.41-1.142,0.775c-0.459,0.364-0.819,0.759-1.091,1.185
		c-0.611,0.728-1.028,1.383-1.256,1.96c-0.198,0.504-0.336,1.134-0.433,1.848c-0.113,0.106-0.232,0.206-0.34,0.316
		c-0.201,0.199-0.358,0.341-0.48,0.434c-0.183,0.152-0.419,0.334-0.708,0.547c-0.289,0.212-0.568,0.335-0.842,0.364
		c-0.153,0.03-0.291,0.008-0.411-0.068c-0.121-0.076-0.227-0.175-0.318-0.296c-0.094-0.122-0.175-0.243-0.25-0.365
		c-0.076-0.123-0.172-0.212-0.295-0.274c-0.244-0.182-0.496-0.28-0.753-0.294c-0.258-0.015-0.51,0.007-0.755,0.067
		c-0.271,0.032-0.584,0.085-0.931,0.159c-0.352,0.077-0.678,0.207-0.981,0.389c-0.212,0.151-0.417,0.328-0.616,0.523
		c-0.193,0.2-0.417,0.389-0.658,0.571c0-0.486,0.016-0.935,0.045-1.346c0.028-0.409,0.013-0.797-0.045-1.163l0.045-0.362
		c0.028-0.028,0.013-0.099-0.045-0.205c-0.063-0.107-0.092-0.175-0.092-0.206l0.272-1.412c0.028-0.211,0.061-0.479,0.093-0.799
		c0.029-0.318,0.06-0.653,0.089-1.002c0.03-0.349,0.055-0.699,0.069-1.048c0.018-0.349,0.008-0.645-0.022-0.888
		c-0.062-0.152-0.106-0.275-0.136-0.365c-0.032-0.092-0.064-0.198-0.093-0.319c0-0.123,0.038-0.197,0.114-0.228
		c0.077-0.031,0.159-0.092,0.251-0.183c0.122-0.242,0.166-0.516,0.138-0.82c-0.03-0.302,0.074-0.805,0.319-1.503
		c0.06-0.152,0.089-0.411,0.089-0.776v-0.409c-0.029-0.243-0.013-0.502,0.047-0.776c0.061-0.272,0.136-0.546,0.227-0.82
		c0.092-0.273,0.187-0.524,0.274-0.752c0.093-0.228,0.136-0.433,0.136-0.613c-0.061-0.153-0.105-0.282-0.136-0.39
		c-0.031-0.105-0.062-0.235-0.088-0.388c0,0.061,0.057-0.104,0.181-0.5c0.12-0.396,0.249-0.852,0.385-1.366
		c0.139-0.518,0.291-1.035,0.457-1.551c0.165-0.517,0.297-0.881,0.387-1.094c0.12-0.274,0.226-0.593,0.32-0.957
		c0.089-0.365,0.179-0.722,0.272-1.071c0.093-0.351,0.182-0.668,0.273-0.958c0.092-0.287,0.183-0.477,0.272-0.569
		c0.215-0.243,0.341-0.501,0.391-0.775c0.044-0.272,0.067-0.547,0.067-0.819c0-0.275,0.004-0.532,0.019-0.775
		c0.019-0.244,0.071-0.457,0.162-0.639c0.15,0,0.267-0.106,0.342-0.319c0.074-0.212,0.115-0.439,0.115-0.683
		c0-0.302-0.016-0.639-0.05-1.003c0-0.03,0.019-0.074,0.05-0.137c0.03-0.06,0.044-0.105,0.044-0.137
		c-0.06-0.272-0.198-0.592-0.409-0.957c-0.214-0.364-0.501-0.517-0.865-0.456c-0.245,0.061-0.464,0.197-0.663,0.411
		c-0.197,0.213-0.386,0.472-0.568,0.774c-0.184,0.304-0.339,0.617-0.478,0.934c-0.139,0.32-0.237,0.602-0.296,0.844
		c-0.033,0.092-0.078,0.168-0.139,0.228c-0.062,0.061-0.119,0.123-0.182,0.182c-0.062,0.243-0.139,0.525-0.228,0.844
		c-0.092,0.318-0.183,0.625-0.273,0.911c-0.092,0.29-0.197,0.632-0.319,1.026l0.045,0.32c0.029,0.242-0.03,0.54-0.181,0.888
		c-0.152,0.351-0.259,0.633-0.321,0.844c-0.089,0.244-0.188,0.571-0.293,0.979c-0.108,0.41-0.175,0.631-0.205,0.663
		c0.03,0.273,0.03,0.607,0,1c-0.034,0.395-0.078,0.791-0.139,1.186c-0.062,0.396-0.131,0.736-0.206,1.025
		c-0.075,0.29-0.157,0.479-0.252,0.571c0.062,0.364,0.05,0.751-0.044,1.161c-0.091,0.411-0.166,0.754-0.227,1.025
		c-0.062,0.547-0.114,1.026-0.162,1.436c-0.044,0.411-0.172,0.919-0.385,1.527c-0.064,0.151-0.069,0.334-0.024,0.546
		c0.047,0.214,0.04,0.427-0.023,0.639c-0.06,0.213-0.106,0.516-0.136,0.911c-0.031,0.397-0.045,0.715-0.045,0.957
		c-0.031,0.485-0.062,0.843-0.091,1.071c-0.032,0.229-0.09,0.433-0.183,0.615c0,0.304-0.015,0.479-0.047,0.524
		c-0.031,0.047-0.031,0.206,0,0.479c-0.031,0.182-0.045,0.381-0.045,0.595c0,0.211-0.015,0.392-0.044,0.546
		c-0.029,0.212-0.045,0.41-0.045,0.592c0,0.06,0.005,0.106,0.02,0.135c0.019,0.032,0.025,0.077,0.025,0.138v0.137
		c0.058,0.425,0.058,0.865,0,1.322c-0.063,0.456-0.079,0.895-0.045,1.321c0.058,0.059,0.065,0.137,0.02,0.227
		c-0.042,0.093-0.069,0.183-0.069,0.273c0,0.062-0.015,0.25-0.042,0.57c-0.033,0.319-0.015,0.601,0.042,0.843v0.707
		c0,0.351,0.016,0.584,0.05,0.706l0.045,0.775c-0.029,0.425,0,0.851,0.089,1.276c0.092,0.425,0.169,0.851,0.229,1.275
		c0.485,1.123,1.041,1.953,1.661,2.483c0.625,0.533,1.544,0.8,2.758,0.8c0.063-0.062,0.267-0.146,0.617-0.251
		c0.347-0.107,0.673-0.359,0.979-0.752c0.305-0.273,0.607-0.563,0.91-0.865c0.306-0.306,0.458-0.503,0.458-0.595l-0.094-0.548
		c0.03-0.029,0.107-0.15,0.229-0.362c0.122-0.214,0.243-0.441,0.365-0.684c0.122-0.244,0.228-0.463,0.319-0.661
		c0.092-0.197,0.135-0.312,0.135-0.342c0-0.092-0.017-0.189-0.043-0.296c-0.031-0.106-0.062-0.22-0.092-0.343
		c-0.031-0.454,0.183-0.911,0.637-1.367c0.337-0.336,0.726-0.638,1.112-0.942c0.038,0.133,0.071,0.271,0.071,0.441
		c0.063,0.122,0.116,0.259,0.161,0.411c0.043,0.153,0.083,0.288,0.114,0.41c0.151,0.272,0.32,0.517,0.501,0.729
		c0.182,0.212,0.365,0.395,0.549,0.547c0.151,0.212,0.337,0.372,0.565,0.479c0.231,0.107,0.42,0.221,0.571,0.342
		c0.15,0.152,0.244,0.257,0.272,0.318c0.029,0.061,0.107,0.106,0.229,0.137c0.059,0,0.22,0.045,0.479,0.138
		c0.26,0.09,0.405,0.166,0.433,0.228c0.059,0,0.145-0.009,0.25-0.023s0.191-0.007,0.252,0.023l0.82,0.09l0.138-0.135l0.271-0.093
		c0.064-0.029,0.129-0.061,0.207-0.09c0.074-0.032,0.144-0.046,0.204-0.046c0.031,0,0.115,0.006,0.253,0.022
		c0.136,0.015,0.232,0.023,0.296,0.023c0.182-0.153,0.378-0.274,0.592-0.365s0.44-0.243,0.685-0.456
		c0.183-0.394,0.485-0.639,0.909-0.729l0.185-0.228c0.208-0.244,0.418-0.401,0.613-0.478c0.197-0.076,0.402-0.206,0.615-0.39
		c0.017-0.013,0.029-0.019,0.045-0.032v0.124c0,0.638,0.123,1.247,0.366,1.823c0.062,0.093,0.138,0.229,0.226,0.411
		c0.095,0.182,0.206,0.349,0.345,0.502c0.136,0.15,0.296,0.273,0.479,0.363c0.183,0.092,0.391,0.092,0.635,0
		c0.154,0.029,0.255,0.053,0.297,0.069c0.048,0.015,0.146,0.006,0.297-0.024c0.03-0.031,0.107-0.097,0.23-0.204
		c0.12-0.107,0.241-0.213,0.363-0.319c0.12-0.107,0.226-0.188,0.319-0.251c0.09-0.061,0.118-0.061,0.09,0
		c0.061-0.03,0.16-0.12,0.298-0.272c0.137-0.152,0.278-0.32,0.431-0.502c0.153-0.182,0.282-0.341,0.39-0.478
		c0.104-0.138,0.174-0.22,0.205-0.251l0.363,0.547c0,0.031,0.03,0.076,0.09,0.138c0.063,0.06,0.244,0.258,0.549,0.592
		c0.15,0.214,0.294,0.357,0.431,0.434c0.139,0.076,0.284,0.175,0.436,0.295c0.152,0.152,0.242,0.258,0.272,0.32
		c0.031,0.062,0.108,0.104,0.229,0.136c0.062,0,0.219,0.048,0.478,0.138c0.259,0.092,0.4,0.166,0.434,0.228
		c0.062,0,0.143-0.008,0.249-0.023c0.108-0.015,0.189-0.007,0.254,0.023l0.955-0.045c0.82-0.336,1.474-0.729,1.962-1.187
		c0.485-0.455,0.974-0.729,1.456-0.82l0.183-0.228c0.214-0.242,0.416-0.401,0.615-0.479c0.196-0.074,0.402-0.205,0.615-0.387
		c0.053-0.04,0.09-0.078,0.135-0.117l0.05,0.164c0.09,0.122,0.195,0.356,0.316,0.706c0.121,0.35,0.214,0.586,0.274,0.707
		c0.06,0.153,0.189,0.258,0.386,0.32c0.198,0.06,0.401,0.15,0.617,0.271h0.183c0.15-0.06,0.357-0.113,0.614-0.158
		c0.259-0.045,0.462-0.1,0.617-0.16c0.12-0.151,0.226-0.25,0.315-0.296c0.094-0.047,0.17-0.129,0.23-0.251
		c0.122-0.152,0.219-0.288,0.296-0.41c0.076-0.121,0.157-0.212,0.25-0.273c0.059-0.03,0.128-0.076,0.203-0.138
		c0.079-0.059,0.133-0.106,0.162-0.136c0.394-0.456,0.776-0.821,1.141-1.094c0.058-0.092,0.126-0.227,0.203-0.41
		c0.073-0.181,0.162-0.273,0.25-0.273c0.064,0,0.146,0.069,0.254,0.205c0.104,0.137,0.219,0.291,0.338,0.456
		c0.124,0.168,0.237,0.335,0.344,0.502c0.106,0.166,0.19,0.28,0.251,0.341c0,0.062,0.016,0.122,0.046,0.183
		c0.029,0.091,0.059,0.137,0.089,0.137c0.185,0.152,0.379,0.327,0.595,0.523c0.211,0.199,0.424,0.404,0.638,0.616
		c0.059,0.091,0.122,0.176,0.181,0.251c0.061,0.075,0.136,0.145,0.229,0.204c0.06,0,0.151,0.023,0.272,0.068
		c0.123,0.046,0.212,0.083,0.274,0.113c0.091,0,0.196-0.008,0.317-0.021c0.123-0.016,0.211-0.009,0.275,0.021
		c0.119,0,0.21,0.055,0.273,0.16c0.06,0.106,0.167,0.145,0.318,0.113c0.271,0,0.592-0.045,0.955-0.135
		c0.364-0.093,0.7-0.198,1.002-0.32c0.063-0.06,0.133-0.098,0.206-0.115c0.077-0.014,0.131-0.037,0.159-0.066
		c0.338-0.061,0.64-0.13,0.912-0.205c0.273-0.074,0.56-0.189,0.869-0.342c0.088-0.06,0.16-0.121,0.203-0.183
		c0.045-0.06,0.128-0.12,0.252-0.182c0.091-0.061,0.182-0.097,0.271-0.113c0.09-0.015,0.166-0.053,0.229-0.116
		c0.151-0.12,0.334-0.233,0.549-0.342c0.212-0.104,0.376-0.219,0.498-0.341c0.094-0.181,0.22-0.341,0.389-0.477
		c0.098-0.081,0.188-0.152,0.279-0.227l0.2,1.159c0.06,0.274,0.206,0.547,0.434,0.821c0.226,0.274,0.492,0.518,0.795,0.729
		c0.305,0.213,0.624,0.389,0.956,0.524c0.336,0.136,0.626,0.204,0.867,0.204c0.427,0,0.853,0.008,1.276,0.024
		c0.426,0.015,0.819-0.04,1.183-0.159c0.519-0.123,0.9-0.237,1.142-0.345c0.244-0.104,0.472-0.231,0.686-0.386
		c0.213-0.151,0.477-0.318,0.796-0.501c0.318-0.183,0.83-0.394,1.528-0.637c0.025,0,0.159-0.061,0.386-0.183
		c0.23-0.121,0.472-0.257,0.729-0.411c0.256-0.151,0.616-0.348,1.071-0.592c0.151-0.06,0.34-0.113,0.57-0.159
		c0.228-0.046,0.448-0.114,0.66-0.207c0.334-0.302,0.633-0.53,0.889-0.682c0.258-0.151,0.552-0.319,0.89-0.503
		c0.576-0.301,0.985-0.507,1.231-0.615c0.238-0.105,0.431-0.173,0.564-0.203c0.003-0.002,0.012-0.003,0.013-0.003
		c-0.09,0.074-0.182,0.147-0.216,0.253c-0.091,0.288-0.137,0.462-0.137,0.526c-0.029,0.241,0,0.538,0.094,0.887
		c0.09,0.349,0.164,0.63,0.227,0.843c0.061,0.426,0.151,0.699,0.272,0.819c0.125,0.123,0.23,0.35,0.32,0.684
		c0,0.032,0.114,0.146,0.34,0.341c0.228,0.2,0.555,0.298,0.982,0.298c0.091,0,0.181,0.023,0.273,0.066
		c0.092,0.047,0.183,0.069,0.271,0.069c0.063,0,0.124-0.022,0.186-0.069c0.06-0.043,0.151-0.066,0.271-0.066
		c0.366,0,0.661-0.061,0.89-0.183c0.229-0.121,0.426-0.252,0.593-0.387c0.166-0.137,0.317-0.266,0.456-0.389
		c0.137-0.119,0.281-0.182,0.434-0.182c0.091,0,0.158,0.077,0.205,0.229c0.045,0.152,0.082,0.335,0.117,0.548
		c0.026,0.21,0.047,0.409,0.065,0.59c0.015,0.183,0.023,0.32,0.023,0.41c0,0.519,0.028,1.004,0.09,1.458
		c0.059,0.456,0.092,0.928,0.092,1.414c0,0.395,0.005,0.767,0.023,1.116c0.015,0.349,0.021,0.735,0.021,1.162
		c-0.027,0.456-0.027,0.85,0,1.186c0.028,0.334,0.045,0.667,0.045,1.005c0,0.087-0.017,0.204-0.045,0.339
		c-0.027,0.138-0.044,0.28-0.044,0.435c0.089,0.425,0.173,0.917,0.25,1.482c0.076,0.56,0.114,1.037,0.114,1.433
		c0,0.121,0.037,0.236,0.113,0.343c0.075,0.106,0.111,0.22,0.111,0.341c0,0.487,0.062,0.943,0.186,1.368
		c0.1,0.351,0.132,0.703,0.148,1.055c-0.011,0.616-0.023,1.165-0.036,1.599c-0.013,0.519-0.027,0.935-0.044,1.254
		c-0.015,0.319-0.023,0.615-0.023,0.889c0,0.668,0.055,1.321,0.162,1.96c0.104,0.638,0.156,1.275,0.156,1.914
		c-0.059,0.519-0.075,1.04-0.046,1.572c0.03,0.532,0.046,0.935,0.046,1.208c0,0.152,0.023,0.334,0.07,0.548
		c0.044,0.211,0.068,0.396,0.068,0.547c0,0.667-0.085,1.224-0.253,1.663c-0.164,0.44-0.372,0.819-0.614,1.139
		c-0.243,0.318-0.51,0.593-0.797,0.822c-0.29,0.226-0.555,0.431-0.799,0.611c-0.153,0.153-0.306,0.289-0.456,0.411
		c-0.152,0.122-0.38,0.183-0.683,0.183c-0.152,0-0.273-0.031-0.364-0.09c-0.094-0.062-0.214-0.093-0.367-0.093
		c-0.058,0-0.142,0.084-0.246,0.253c-0.108,0.166-0.164,0.279-0.164,0.342c0,0.151,0.062,0.288,0.188,0.411
		c0.115,0.12,0.272,0.225,0.453,0.312c0.183,0.094,0.367,0.163,0.546,0.207c0.183,0.047,0.337,0.07,0.455,0.07
		c0.365,0,0.647-0.07,0.845-0.206c0.195-0.134,0.462-0.278,0.799-0.429c0.271-0.063,0.514-0.132,0.729-0.207
		c0.213-0.076,0.438-0.373,0.682-0.89c0.305-0.396,0.546-0.715,0.731-0.956c0.179-0.245,0.325-0.464,0.434-0.662
		c0.104-0.197,0.188-0.41,0.249-0.638c0.062-0.229,0.137-0.555,0.227-0.98c0.062-0.093,0.114-0.221,0.16-0.387
		c0.046-0.168,0.077-0.358,0.091-0.569c0.016-0.212,0.025-0.403,0.025-0.571v-0.387c0-0.729-0.019-1.246-0.047-1.549
		c-0.034-0.304-0.047-0.578-0.047-0.82c0-0.03-0.014-0.105-0.045-0.229c-0.031-0.119-0.046-0.228-0.046-0.32
		c0-0.303,0.029-0.59,0.091-0.864c0.061-0.272,0.094-0.546,0.094-0.821c0-0.516-0.01-1.01-0.025-1.481
		c-0.014-0.471-0.021-0.933-0.021-1.39c0-0.211-0.036-0.378-0.115-0.501c-0.075-0.122-0.114-0.272-0.114-0.455
		c0-0.883-0.009-1.756-0.021-2.619c-0.017-0.868-0.024,1.832-0.024,1.015c0-1.157-0.053-2.28-0.159-3.374
		c-0.106-1.095-0.16-2.172-0.16-3.236c0-0.425-0.028-0.721-0.091-0.888c-0.06-0.169-0.09-0.465-0.09-0.89V78.26
		c0-0.334,0.03-0.53,0.09-0.592c-0.152-0.091-0.26-0.33-0.318-0.708c-0.063-0.379-0.099-0.796-0.114-1.252
		c-0.016-0.458-0.016-0.906,0-1.346c0.016-0.44,0.024-0.768,0.024-0.979c0-0.336,0.006-0.647,0.021-0.935
		c0.015-0.289,0.022-0.586,0.022-0.889c0-0.274-0.038-0.532-0.115-0.775c-0.074-0.242-0.111-0.47-0.111-0.684
		c0-0.061,0.004-0.129,0.021-0.207c0.017-0.073,0.022-0.143,0.022-0.202c0-0.244,0.026-0.45,0.068-0.615
		c0.047-0.169,0.071-0.343,0.071-0.524c0-0.062-0.018-0.212-0.046-0.458c-0.031-0.242-0.047-0.44-0.047-0.59
		c0-0.063,0.007-0.153,0.021-0.274c0.015-0.123,0.025-0.198,0.025-0.229c0-0.273,0.017-0.531,0.046-0.775
		c0.026-0.242,0.044-0.471,0.044-0.683c0-0.212-0.068-0.457-0.206-0.729c-0.134-0.275-0.325-0.411-0.567-0.411
		c-0.366,0-0.648,0.107-0.844,0.319c-0.197,0.213-0.33,0.439-0.389,0.684c-0.121,0.303-0.165,0.622-0.136,0.956
		c-0.179,0.244-0.319,0.563-0.41,0.958s-0.152,0.653-0.181,0.773c-0.274,0.458-0.594,0.867-0.96,1.232
		c-0.367,0.365-0.835,0.546-1.414,0.546c-0.272-0.059-0.462-0.174-0.569-0.341c-0.105-0.167-0.176-0.327-0.204-0.48
		c-0.029-0.15-0.036-0.265-0.021-0.34c0.015-0.075,0.021-0.069,0.021,0.022c-0.029-0.121-0.075-0.296-0.135-0.525
		c-0.061-0.226-0.146-0.447-0.254-0.66c-0.104-0.211-0.232-0.402-0.384-0.568c-0.094-0.1-0.201-0.153-0.313-0.183
		c0.146-0.045,0.3-0.095,0.495-0.161c0.424-0.121,0.843-0.234,1.253-0.342c0.409-0.105,0.617-0.387,0.617-0.842
		c0-0.272-0.126-0.485-0.366-0.637c-0.247-0.152-0.498-0.228-0.774-0.228c-0.425,0-0.814,0.076-1.161,0.228
		c-0.353,0.152-0.686,0.327-1.008,0.523c-0.315,0.198-0.629,0.395-0.93,0.592c-0.306,0.199-0.594,0.343-0.866,0.433
		c-0.367,0.152-0.745,0.327-1.142,0.523c-0.395,0.2-0.805,0.343-1.229,0.435c-1.307,0.941-2.354,1.558-3.142,1.844
		c-0.792,0.291-1.223,0.451-1.278,0.481c-0.459,0.243-0.936,0.431-1.438,0.567c-0.5,0.139-0.964,0.207-1.391,0.207
		c-0.88,0-1.535-0.295-1.959-0.889c-0.426-0.593-0.64-1.191-0.64-1.801c0-0.333,0.025-0.66,0.071-0.979
		c0.043-0.319,0.066-0.644,0.066-0.98c0-0.457,0.082-0.872,0.251-1.253c0.168-0.379,0.28-0.752,0.344-1.117
		c0.091-0.334,0.166-0.675,0.226-1.026c0.062-0.348,0.138-0.69,0.228-1.025c0.03-0.12,0.068-0.295,0.118-0.523
		c0.044-0.228,0.093-0.463,0.155-0.707c0.062-0.244,0.139-0.464,0.229-0.662c0.093-0.196,0.185-0.341,0.271-0.432
		c0.187-0.912,0.323-1.724,0.413-2.439c0.089-0.713,0.348-1.465,0.773-2.255c0.092-0.302,0.24-0.561,0.434-0.774
		c0.197-0.214,0.329-0.411,0.391-0.594c0.209-0.485,0.316-0.888,0.316-1.208c0-0.319,0.148-0.691,0.453-1.116
		c0.278-0.364,0.512-0.653,0.709-0.866c0.197-0.213,0.412-0.379,0.637-0.501c0.228-0.121,0.502-0.228,0.824-0.319
		c0.316-0.09,0.704-0.198,1.156-0.318c0.67-0.152,1.323-0.304,1.963-0.456c0.637-0.15,1.29-0.258,1.958-0.32
		c0.365-0.09,0.733-0.22,1.097-0.386c0.365-0.168,0.711-0.25,1.044-0.25c0.125,0,0.225,0.006,0.299,0.021
		c0.077,0.016,0.16,0.022,0.252,0.022c0.244,0,0.485-0.066,0.728-0.204c0.244-0.138,0.486-0.22,0.729-0.251
		c0.336,0,0.715-0.015,1.14-0.045c0.426-0.031,0.804-0.106,1.139-0.228c0.12-0.061,0.191-0.099,0.209-0.114
		c0.013-0.015,0.081-0.039,0.203-0.067h0.546h0.159c0.076,0,0.161-0.015,0.251-0.046c0.123-0.03,0.23-0.061,0.318-0.091
		c0.091,0,0.169,0.008,0.231,0.023c0.059,0.015,0.117,0.023,0.179,0.023c0.851,0,1.421-0.114,1.707-0.342
		c0.295-0.228,0.557-0.373,0.802-0.434h1c0.639,0,1.256-0.074,1.844-0.228c0.597-0.153,1.196-0.228,1.805-0.228h1.777h0.522
		c0.196,0,0.386,0.03,0.57,0.091c0.212,0.031,0.365,0.106,0.454,0.228c0.093,0.122,0.289,0.183,0.592,0.183
		c0.304,0,0.564-0.213,0.779-0.64C281.513,44.536,281.411,44.261,281.215,44.078"/>
	<path fill="#CCC2B6" d="M178.387,68.521c-0.15,0.319-0.301,0.523-0.456,0.615c-0.028,0-0.05,0.007-0.063,0.021
		c-0.021,0.017-0.043,0.024-0.071,0.024c-0.032,0.03-0.075,0.045-0.138,0.045c-0.061,0.062-0.091,0.114-0.091,0.159
		c0,0.046-0.029,0.1-0.092,0.16c-0.333,0.335-0.743,0.532-1.231,0.593c-0.06,0-0.135-0.047-0.228-0.139
		c-0.091-0.09-0.135-0.166-0.135-0.226c0.06-0.152,0.205-0.312,0.431-0.479c0.23-0.167,0.388-0.327,0.48-0.479
		c0.094-0.091,0.212-0.182,0.362-0.273c0.155-0.091,0.258-0.152,0.32-0.182c0.03-0.031,0.062-0.076,0.092-0.137
		c0.03-0.062,0.075-0.121,0.137-0.182c0.03,0,0.128-0.092,0.296-0.274c0.169-0.183,0.28-0.272,0.344-0.272
		c0.09-0.031,0.142,0,0.159,0.09c0.014,0.092,0.021,0.153,0.021,0.183C178.584,67.95,178.539,68.201,178.387,68.521 M186.229,62.481
		c-0.248,0.062-0.467,0.101-0.662,0.115c-0.199,0.016-0.376,0.038-0.527,0.068c-0.211,0.062-0.469,0.189-0.773,0.388
		c-0.303,0.198-0.575,0.357-0.82,0.479c-0.061,0-0.189,0.053-0.388,0.159c-0.197,0.106-0.325,0.159-0.387,0.159
		c-0.029,0-0.061,0.009-0.091,0.023c-0.033,0.017-0.061,0.023-0.089,0.023h-0.14c-0.243,0.152-0.54,0.319-0.89,0.5
		c-0.35,0.184-0.644,0.291-0.887,0.319h-0.138c-0.062,0-0.105-0.014-0.136-0.044c-0.031-0.061-0.113-0.154-0.252-0.275
		c-0.137-0.121-0.223-0.211-0.25-0.272c-0.033-0.029-0.061-0.099-0.093-0.205c-0.028-0.107-0.062-0.174-0.088-0.204l-0.23-0.229
		c-0.09-0.06-0.183-0.136-0.271-0.228c-0.122-0.153-0.24-0.29-0.344-0.41c-0.108-0.12-0.204-0.257-0.297-0.409
		c-0.212-0.183-0.417-0.32-0.611-0.41c-0.202-0.091-0.329-0.305-0.392-0.639c0-0.183,0.054-0.341,0.161-0.479
		c0.106-0.138,0.219-0.273,0.342-0.411c0.121-0.137,0.233-0.264,0.341-0.387c0.107-0.121,0.145-0.273,0.114-0.456
		c-0.033-0.061-0.06-0.137-0.09-0.228c-0.033-0.091-0.077-0.151-0.137-0.181c-0.153-0.062-0.276-0.116-0.365-0.16
		c-0.094-0.046-0.23-0.067-0.411-0.067c-0.243,0-0.471,0.089-0.683,0.272c-0.061,0.031-0.153,0.093-0.273,0.183
		c-0.123,0.09-0.197,0.152-0.23,0.181c-0.181,0.153-0.391,0.313-0.636,0.478c-0.242,0.168-0.442,0.389-0.594,0.66
		c-0.152,0.214-0.249,0.429-0.296,0.64c-0.045,0.211-0.039,0.379,0.021,0.501c0.029,0.091,0.077,0.211,0.138,0.364
		c0.061,0.151,0.092,0.244,0.092,0.274c0.336,0.334,0.601,0.637,0.793,0.91c0.202,0.274,0.454,0.577,0.759,0.911
		c0.027,0.031,0.126,0.107,0.294,0.229c0.166,0.123,0.265,0.181,0.295,0.181c0.093,0.123,0.165,0.268,0.228,0.433
		c0.062,0.168,0.168,0.282,0.32,0.342l0.32,0.638l-0.23,0.41l-0.817,0.41c-0.243,0.245-0.504,0.426-0.776,0.546
		c-0.272,0.123-0.503,0.274-0.686,0.457c-0.15,0.09-0.308,0.198-0.477,0.319c-0.168,0.122-0.34,0.228-0.523,0.318
		c-0.152,0.092-0.302,0.168-0.457,0.228c-0.153,0.062-0.305,0.137-0.455,0.229c-0.273,0.153-0.456,0.334-0.546,0.546
		c-0.093,0.031-0.175,0.061-0.253,0.093c-0.073,0.03-0.128,0.044-0.158,0.044c-0.03,0.03-0.103,0.107-0.205,0.228
		c-0.105,0.12-0.159,0.213-0.159,0.274c-0.153,0.181-0.297,0.296-0.435,0.34c-0.135,0.046-0.188,0.189-0.158,0.433
		c0.062,0.425,0.304,0.7,0.729,0.821c0.424,0.12,0.776,0.165,1.048,0.136c0.124,0.061,0.229,0.107,0.317,0.137
		c0.121-0.061,0.289-0.061,0.503,0c0.152,0.06,0.253,0.099,0.296,0.116c0.044,0.014,0.144,0.021,0.298,0.021
		c0.211-0.03,0.388-0.062,0.521-0.093c0.139-0.03,0.312-0.074,0.526-0.137c0.091-0.061,0.182-0.112,0.272-0.159
		c0.09-0.045,0.184-0.083,0.272-0.113h0.366c0.121,0,0.229-0.047,0.317-0.138c0.15,0,0.275,0.015,0.365,0.047
		c0.092,0.029,0.198,0.015,0.32-0.047c0.243-0.092,0.548-0.265,0.914-0.523c0.362-0.258,0.572-0.478,0.636-0.661l0.183-0.092
		l0.092-0.182c0.026-0.062,0.06-0.105,0.088-0.137c0.06-0.092,0.14-0.15,0.229-0.182c0.093-0.029,0.166-0.075,0.229-0.135
		c0.06-0.062,0.105-0.184,0.137-0.366c0.03-0.183,0.073-0.319,0.136-0.41c0.152-0.242,0.272-0.456,0.367-0.638
		c0.088-0.183,0.134-0.395,0.134-0.637c-0.03-0.063-0.015-0.145,0.047-0.252c0.059-0.105,0.09-0.188,0.09-0.25l-0.045-0.592
		c-0.031-0.153,0.076-0.333,0.318-0.547c0.244-0.212,0.425-0.379,0.548-0.501c0.061-0.09,0.113-0.143,0.161-0.159
		c0.043-0.015,0.127-0.052,0.247-0.114c0.275-0.151,0.494-0.281,0.664-0.387c0.163-0.107,0.385-0.22,0.659-0.342
		c0.151-0.031,0.306-0.084,0.456-0.16c0.149-0.076,0.303-0.115,0.455-0.115c0.062,0,0.138-0.03,0.228-0.09
		c0.092-0.062,0.152-0.092,0.183-0.092c0.151-0.029,0.281-0.062,0.387-0.092c0.107-0.03,0.22-0.045,0.343-0.045
		c0.092,0,0.223-0.053,0.386-0.158c0.17-0.107,0.268-0.189,0.294-0.252c0.094-0.061,0.186-0.137,0.277-0.228
		c0.088-0.091,0.123-0.167,0.088-0.229c-0.027-0.09-0.104-0.219-0.224-0.387C186.377,62.566,186.286,62.481,186.229,62.481"/>
	<path fill="#CCC2B6" d="M170.279,58.408c-0.09-0.493-0.138-0.924-0.155-1.287c-0.016-0.364-0.025-0.711-0.022-1.049
		c0.002-0.339-0.009-0.691-0.024-1.064c-0.023-0.374-0.076-0.826-0.171-1.36l-0.303-1.715c-0.043-0.074-0.082-0.212-0.116-0.407
		c-0.037-0.199-0.095-0.393-0.177-0.582c-0.074-0.19-0.183-0.35-0.313-0.479s-0.303-0.174-0.509-0.139
		c-0.392,0.07-0.668,0.19-0.84,0.361c-0.17,0.173-0.277,0.355-0.323,0.546c-0.04,0.191-0.042,0.38-0.012,0.568l0.077,0.428
		c0.036,0.217,0.09,0.441,0.16,0.672c0.071,0.233,0.125,0.458,0.166,0.674c0.015,0.099,0.03,0.206,0.036,0.314
		c0.001,0.111,0.012,0.216,0.026,0.314c0.05,0.278,0.109,0.522,0.176,0.735c0.071,0.21,0.141,0.427,0.208,0.65
		c0.07,0.219,0.146,0.451,0.217,0.693c0.073,0.243,0.141,0.53,0.198,0.866c0.016,0.079,0.021,0.159,0.02,0.238
		c-0.003,0.085,0.006,0.154,0.014,0.214c0.01,0.058,0.052,0.201,0.119,0.42c0.069,0.224,0.181,0.443,0.325,0.661
		c0.147,0.218,0.337,0.409,0.564,0.573c0.229,0.163,0.495,0.216,0.792,0.165c0.044-0.109,0.081-0.206,0.113-0.294
		c0.029-0.086,0.036-0.18,0.021-0.278c-0.019-0.099-0.061-0.172-0.138-0.222C170.345,58.577,170.296,58.506,170.279,58.408"/>
	<path fill="#CCC2B6" d="M160.825,65.069c0-0.06,0.029-0.174,0.094-0.341c0.058-0.167,0.121-0.341,0.182-0.523
		c0.062-0.183,0.121-0.35,0.18-0.502c0.062-0.151,0.108-0.243,0.139-0.274c0.061-0.061,0.112-0.136,0.159-0.229
		c0.048-0.089,0.084-0.166,0.114-0.227c0.12-0.242,0.342-0.448,0.661-0.616c0.319-0.167,0.63-0.265,0.933-0.295
		c0.123,0,0.183,0.076,0.183,0.228c-0.031,0.182-0.1,0.372-0.204,0.568c-0.107,0.198-0.193,0.327-0.251,0.389
		c-0.062,0.091-0.092,0.152-0.092,0.181c0,0.031-0.014,0.06-0.046,0.091c-0.027,0.032-0.092,0.1-0.179,0.206
		c-0.093,0.107-0.247,0.266-0.46,0.479c-0.027,0.03-0.12,0.098-0.272,0.205c-0.152,0.105-0.312,0.213-0.477,0.318
		c-0.168,0.107-0.32,0.198-0.458,0.272C160.896,65.076,160.825,65.1,160.825,65.069 M158.754,64.432
		c-0.089,0.218-0.153,0.476-0.223,0.733c-0.053,0.046-0.088,0.101-0.166,0.132c-0.577,0.212-1.123,0.517-1.643,0.912
		c-0.514,0.395-0.972,0.796-1.364,1.208c-0.397,0.41-0.71,0.768-0.936,1.071c-0.227,0.306-0.344,0.472-0.344,0.502
		c-0.06,0.092-0.173,0.228-0.336,0.41c-0.172,0.183-0.33,0.372-0.482,0.571c-0.152,0.196-0.288,0.385-0.41,0.567
		c-0.121,0.183-0.183,0.32-0.183,0.411c-0.061,0.061-0.154,0.168-0.272,0.318c-0.123,0.154-0.243,0.313-0.363,0.479
		c-0.122,0.167-0.248,0.312-0.365,0.434c-0.123,0.122-0.2,0.184-0.229,0.184c-0.061,0-0.123-0.085-0.181-0.252
		c-0.062-0.166-0.123-0.357-0.183-0.568c-0.061-0.212-0.109-0.412-0.141-0.593c-0.027-0.182-0.042-0.287-0.042-0.319
		c-0.028,0-0.045-0.425-0.045-1.277c-0.094-0.363-0.155-0.711-0.184-1.048c-0.03-0.333-0.045-0.682-0.045-1.047v-0.818
		c0-0.213,0.059-0.413,0.181-0.595v-0.637c-0.059-0.031-0.09-0.083-0.09-0.159v-0.891c0.12-0.057,0.256-0.134,0.409-0.226
		c0.121-0.059,0.259-0.122,0.411-0.182c0.151-0.061,0.303-0.091,0.454-0.091c0.029,0.151,0.146,0.242,0.343,0.272
		c0.197,0.031,0.417,0.046,0.66,0.046c0.244,0,0.479-0.015,0.706-0.046c0.233-0.03,0.372-0.045,0.437-0.045
		c0.362,0,0.741,0.023,1.137,0.069c0.396,0.044,0.775,0.098,1.139,0.159h0.824c0.574,0,1.009,0.075,1.296,0.227
		c0.089,0.047,0.16,0.036,0.242,0.07C158.764,64.416,158.755,64.425,158.754,64.432 M151.438,87.675l0.272,1.276
		c0.273,1.244,0.487,2.249,0.641,3.01c0.149,0.756,0.257,1.388,0.317,1.888c0.062,0.504,0.09,0.943,0.09,1.324v1.344
		c0,0.029,0.015,0.083,0.048,0.159c0.03,0.074,0.03,0.28,0,0.615c0,0.243,0.007,0.463,0.021,0.662
		c0.014,0.196,0.023,0.416,0.023,0.661c0,0.452-0.015,0.919-0.045,1.389c-0.033,0.471-0.116,0.896-0.251,1.275
		c-0.139,0.382-0.342,0.684-0.616,0.912c-0.271,0.228-0.638,0.343-1.092,0.343c-0.428,0-0.838-0.182-1.231-0.546
		c-0.729-0.73-1.153-1.316-1.278-1.757c-0.12-0.44-0.181-0.705-0.181-0.797c0-0.062-0.032-0.167-0.093-0.32
		c-0.06-0.153-0.088-0.288-0.088-0.409c0-0.576-0.032-0.934-0.093-1.071c-0.062-0.135-0.093-0.281-0.093-0.435v-0.5
		c0-0.029-0.021-0.069-0.066-0.112c-0.045-0.048-0.068-0.086-0.068-0.115c0-0.243-0.025-0.455-0.069-0.638
		c-0.042-0.183-0.067-0.29-0.067-0.318c-0.094-0.183-0.115-0.465-0.067-0.845c0.043-0.38,0.067-0.675,0.067-0.889
		c0,0.031,0.015-0.097,0.045-0.388c0.029-0.289,0.044-0.509,0.044-0.659v-1.413c-0.06-0.245-0.089-0.395-0.089-0.455
		s0.015-0.13,0.045-0.206c0.029-0.074,0.062-0.161,0.092-0.251c0-0.333,0.007-0.639,0.023-0.911
		c0.015-0.274,0.055-0.625,0.111-1.048c0.214-0.214,0.342-0.563,0.389-1.049s0.068-0.865,0.068-1.137
		c0-0.581,0.051-1.074,0.159-1.483c0.106-0.411,0.229-0.774,0.364-1.093c0.137-0.32,0.26-0.634,0.366-0.936
		c0.104-0.305,0.158-0.624,0.158-0.957c0-0.213,0.009-0.427,0.022-0.637c0.014-0.215,0.039-0.441,0.07-0.688l0.319-0.135
		c0.091,0,0.166,0.129,0.227,0.388c0.062,0.26,0.123,0.554,0.184,0.888c0.059,0.334,0.114,0.647,0.157,0.936
		c0.048,0.288,0.071,0.448,0.071,0.479c0,0.242,0.044,0.538,0.136,0.889c0.089,0.349,0.188,0.705,0.296,1.07
		c0.107,0.363,0.213,0.712,0.319,1.049c0.105,0.333,0.175,0.606,0.204,0.818v0.387C151.301,87.381,151.347,87.521,151.438,87.675
		 M151.003,58.574c0.077-0.165,0.131-0.294,0.162-0.385c0.029-0.396,0.106-0.798,0.229-1.209c0.119-0.41,0.287-0.782,0.502-1.117
		c0.21-0.333,0.455-0.608,0.728-0.82c0.274-0.212,0.593-0.32,0.957-0.32c0.304,0,0.457,0.107,0.457,0.32
		c0,0.456-0.164,0.866-0.479,1.23c-0.321,0.365-0.555,0.759-0.708,1.186c-0.032,0.152-0.15,0.364-0.365,0.638
		c-0.213,0.272-0.409,0.486-0.59,0.639l-0.595,0.682c-0.151,0-0.287-0.044-0.409-0.136
		C150.892,58.978,150.928,58.743,151.003,58.574 M169.531,67.394h-0.503c-0.121,0-0.272,0.077-0.455,0.228
		c-0.031,0-0.089,0.038-0.184,0.114c-0.087,0.076-0.189,0.159-0.294,0.251c-0.108,0.089-0.214,0.167-0.318,0.228
		c-0.109,0.061-0.177,0.089-0.206,0.089c-0.061,0.061-0.176,0.155-0.342,0.275c-0.166,0.12-0.269,0.182-0.297,0.182
		c-0.21,0.062-0.388,0.137-0.524,0.228c-0.135,0.092-0.252,0.167-0.341,0.228c-0.334,0.273-0.676,0.457-1.026,0.547
		c-0.35,0.091-0.781,0.137-1.295,0.137c-0.247,0.031-0.534-0.007-0.87-0.114c-0.334-0.106-0.623-0.251-0.865-0.435
		c-0.031,0-0.077-0.05-0.138-0.158c-0.061-0.105-0.127-0.219-0.205-0.343c-0.073-0.12-0.144-0.242-0.206-0.364
		c-0.06-0.122-0.104-0.197-0.136-0.228c-0.092-0.151-0.164-0.235-0.226-0.25c-0.061-0.014-0.11-0.022-0.139-0.022
		c-0.029,0-0.043-0.023-0.043-0.068v-0.433c-0.033-0.184,0.083-0.348,0.342-0.503c0.257-0.152,0.491-0.273,0.704-0.365
		c0.213-0.18,0.389-0.333,0.524-0.455c0.137-0.121,0.267-0.234,0.387-0.34c0.123-0.107,0.215-0.176,0.275-0.206
		c0.122-0.092,0.296-0.228,0.523-0.411c0.226-0.183,0.373-0.378,0.433-0.592v-0.045c0.152-0.212,0.267-0.374,0.344-0.479
		c0.074-0.106,0.136-0.212,0.183-0.319c0.041-0.106,0.094-0.219,0.159-0.342c0.06-0.121,0.149-0.304,0.272-0.546
		c0.058-0.062,0.091-0.167,0.091-0.319c0-0.031-0.018-0.13-0.046-0.296c-0.03-0.167-0.069-0.333-0.111-0.501
		c-0.049-0.166-0.086-0.327-0.118-0.479c-0.028-0.152-0.044-0.243-0.044-0.273c0-0.03-0.029-0.075-0.093-0.138
		c-0.029-0.029-0.059-0.044-0.09-0.044c-0.185-0.304-0.379-0.486-0.592-0.547c-0.215-0.062-0.456-0.106-0.731-0.138
		c-0.151-0.028-0.332-0.006-0.547,0.069c-0.211,0.076-0.395,0.176-0.547,0.296c-0.304,0.153-0.681,0.411-1.137,0.775
		s-0.821,0.759-1.093,1.185c-0.164,0.196-0.279,0.371-0.412,0.557c-0.089-0.032-0.162-0.072-0.252-0.1
		c-0.288-0.093-0.568-0.16-0.845-0.206c-0.272-0.046-0.438-0.052-0.498-0.023c0-0.029-0.037-0.047-0.114-0.047
		c-0.075,0-0.144-0.027-0.206-0.089c-0.424-0.12-0.851-0.145-1.276-0.069c-0.423,0.076-0.819,0.007-1.184-0.205
		c-0.213-0.091-0.449-0.152-0.707-0.183c-0.258-0.028-0.557-0.045-0.89-0.045c-0.12,0-0.281-0.007-0.475-0.022
		c-0.2-0.018-0.636-0.024-1.303-0.024c-0.243-0.09-0.364-0.257-0.364-0.502c0-0.03,0.069-0.158,0.206-0.386
		c0.138-0.229,0.288-0.458,0.456-0.685c0.167-0.228,0.403-0.539,0.706-0.934c0.546-0.729,0.98-1.291,1.3-1.686
		c0.317-0.395,0.563-0.737,0.729-1.025c0.166-0.289,0.279-0.577,0.342-0.867c0.061-0.29,0.093-0.69,0.093-1.208l-0.093-0.546
		c0.061-0.06-0.041-0.229-0.299-0.5c-0.255-0.274-0.6-0.518-1.023-0.731h-0.638c-0.244,0-0.464,0.053-0.661,0.16
		c-0.197,0.106-0.372,0.22-0.523,0.342s-0.258,0.212-0.319,0.273c-0.67,0.517-1.187,1.063-1.546,1.641
		c-0.368,0.577-0.641,1.132-0.823,1.664c-0.183,0.532-0.298,0.988-0.34,1.368c-0.049,0.381-0.071,0.63-0.071,0.752
		c-0.09,0.424-0.219,0.896-0.389,1.413c-0.168,0.517-0.251,1.033-0.251,1.549c-0.06,0.304-0.248,0.509-0.568,0.615
		c-0.317,0.106-0.654,0.228-1.004,0.364c-0.348,0.136-0.667,0.319-0.957,0.547c-0.288,0.228-0.435,0.615-0.435,1.163v0.159
		c0,0.076,0.05,0.1,0.138,0.067c0.155,0,0.308-0.006,0.458-0.023c0.15-0.015,0.273-0.067,0.366-0.158
		c0.185-0.12,0.365-0.197,0.545-0.228c0.181-0.029,0.438-0.075,0.775-0.137c0.244,0.062,0.408,0.167,0.501,0.32
		c0.091,0.153,0.142,0.326,0.161,0.524c0.015,0.197,0.006,0.402-0.023,0.616c-0.032,0.213-0.047,0.394-0.047,0.547v2.46
		c0.03,0.334,0.085,0.699,0.159,1.094c0.077,0.395,0.117,0.775,0.117,1.14l0.181,1.185c0,0.364,0.066,0.781,0.203,1.252
		c0.141,0.471,0.205,0.949,0.205,1.436c0,0.062-0.006,0.107-0.022,0.137c-0.015,0.031-0.022,0.076-0.022,0.138
		c0,0.06,0.008,0.129,0.022,0.205c0.017,0.074,0.022,0.128,0.022,0.16l0.183,1.641c-0.152,0.547-0.327,1.191-0.524,1.935
		c-0.196,0.745-0.401,1.474-0.614,2.19c-0.213,0.712-0.394,1.365-0.549,1.959c-0.151,0.593-0.257,0.995-0.317,1.207
		c0,0.243-0.029,0.563-0.09,0.958c-0.061,0.394-0.14,0.797-0.228,1.208c-0.093,0.409-0.172,0.812-0.229,1.205
		c-0.061,0.396-0.092,0.716-0.092,0.959c-0.059,0.518-0.111,0.964-0.156,1.345c-0.048,0.378-0.07,0.752-0.07,1.117
		c0,0.181,0.006,0.324,0.022,0.432c0.014,0.105,0.024,0.236,0.024,0.389c0,0.334-0.033,0.735-0.094,1.207s-0.043,0.752,0.047,0.843
		v0.82c0,0.151,0.014,0.259,0.047,0.32v1.184c0.211,0.486,0.316,0.874,0.316,1.163c0,0.288,0.076,0.675,0.227,1.162
		c0.153,0.151,0.231,0.469,0.231,0.956c0,0.059,0.053,0.212,0.157,0.455c0.107,0.243,0.189,0.518,0.252,0.822
		c0,0.06,0.061,0.205,0.184,0.432c0.117,0.229,0.264,0.479,0.431,0.754c0.168,0.271,0.318,0.524,0.458,0.749
		c0.138,0.229,0.22,0.344,0.249,0.344h0.271c0.244,0.241,0.448,0.408,0.618,0.499c0.168,0.094,0.372,0.168,0.615,0.23
		c0.06,0.027,0.167,0.036,0.317,0.021c0.151-0.016,0.412-0.021,0.775-0.021c0.425,0,0.745-0.069,0.959-0.206
		c0.21-0.137,0.364-0.289,0.453-0.457c0.094-0.165,0.163-0.317,0.207-0.453c0.044-0.139,0.113-0.206,0.203-0.206
		c0.061-0.061,0.136-0.215,0.228-0.456c0.095-0.244,0.153-0.38,0.181-0.408c0.215-0.154,0.346-0.337,0.392-0.549
		c0.045-0.213,0.068-0.41,0.068-0.591c0.058-0.336,0.111-0.571,0.158-0.707c0.045-0.138,0.068-0.222,0.068-0.252
		c-0.031-0.03-0.04-0.107-0.023-0.228c0.017-0.122,0.023-0.213,0.023-0.273c0-0.335,0.022-0.616,0.069-0.844
		c0.046-0.227,0.066-0.491,0.066-0.799c0.03-0.271,0.021-0.567-0.021-0.886c-0.046-0.321-0.069-0.814-0.069-1.482
		c-0.032-0.061-0.062-0.145-0.093-0.249c-0.029-0.107-0.042-0.191-0.042-0.252c0-0.183,0.021-0.372,0.065-0.569
		c0.046-0.197,0.069-0.601,0.069-1.21c-0.032-0.24-0.062-0.469-0.093-0.683c-0.029-0.181-0.053-0.363-0.068-0.547
		c-0.014-0.182-0.038-0.318-0.066-0.409c-0.062-0.428-0.138-0.812-0.23-1.162c-0.09-0.35-0.137-0.691-0.137-1.025
		c-0.087-0.608-0.199-1.193-0.341-1.755c-0.136-0.563-0.28-1.117-0.432-1.663c-0.062-0.306-0.106-0.602-0.139-0.89
		c-0.027-0.289-0.104-0.646-0.226-1.07c-0.154-0.7-0.312-1.314-0.479-1.846c-0.167-0.533-0.327-1.103-0.479-1.71v-0.412
		c0-0.059-0.015-0.105-0.044-0.134c0-0.274-0.009-0.526-0.024-0.752c-0.015-0.228-0.021-0.646-0.021-1.254
		c0-0.184-0.076-0.455-0.228-0.822c-0.152-0.364-0.229-0.621-0.229-0.772c0-0.274,0.055-0.57,0.16-0.889
		c0.104-0.319,0.22-0.609,0.342-0.867s0.233-0.471,0.342-0.638c0.107-0.167,0.144-0.234,0.112-0.205c0-0.212,0.1-0.419,0.298-0.615
		c0.199-0.198,0.343-0.42,0.432-0.66c0.062,0,0.083-0.062,0.068-0.183c-0.013-0.122,0.054-0.258,0.206-0.41
		c0.122-0.243,0.304-0.546,0.544-0.911c0.245-0.366,0.505-0.731,0.78-1.095c0.272-0.365,0.536-0.699,0.794-1.002
		c0.261-0.304,0.465-0.516,0.616-0.639l0.867-0.865c0.303-0.212,0.6-0.387,0.888-0.524c0.212-0.1,0.38-0.192,0.55-0.284
		c-0.007,0.06-0.019,0.108-0.027,0.17c-0.121,0.152-0.196,0.281-0.225,0.388c-0.033,0.106-0.033,0.266,0,0.478
		c-0.064,0.183-0.064,0.35,0,0.5c0.059,0.155,0.088,0.336,0.088,0.547c0.061,0.122,0.116,0.259,0.16,0.412
		c0.049,0.152,0.086,0.286,0.114,0.41c0.154,0.273,0.318,0.517,0.504,0.729c0.183,0.212,0.362,0.395,0.543,0.547
		c0.155,0.212,0.345,0.372,0.569,0.479c0.231,0.108,0.42,0.222,0.572,0.342c0.153,0.152,0.24,0.258,0.272,0.318
		c0.031,0.061,0.105,0.106,0.229,0.137c0.062,0,0.22,0.046,0.478,0.137c0.256,0.091,0.401,0.167,0.433,0.228
		c0.062,0,0.146-0.009,0.252-0.022c0.105-0.015,0.188-0.007,0.248,0.022l0.82,0.092l0.138-0.138l0.277-0.091
		c0.058-0.03,0.126-0.061,0.204-0.091c0.071-0.031,0.141-0.046,0.205-0.046c0.029,0,0.111,0.006,0.247,0.021
		c0.137,0.019,0.237,0.025,0.298,0.025c0.181-0.151,0.38-0.273,0.593-0.364c0.21-0.091,0.44-0.243,0.681-0.455
		c0.183-0.396,0.489-0.64,0.911-0.731l0.185-0.227c0.215-0.243,0.42-0.401,0.615-0.478c0.197-0.076,0.402-0.206,0.618-0.39
		c0.331-0.242,0.566-0.394,0.703-0.454c0.14-0.062,0.342-0.228,0.617-0.502c0.029-0.031,0.044-0.082,0.044-0.158
		c0-0.077,0.013-0.116,0.045-0.116c0-0.09,0.009-0.183,0.022-0.274c0.015-0.089,0.025-0.166,0.025-0.226
		C169.76,67.409,169.68,67.334,169.531,67.394"/>
	<path fill="#CCC2B6" d="M141.367,52.719c0,0.212,0.076,0.449,0.226,0.705c0.154,0.258,0.345,0.502,0.571,0.73
		c0.226,0.229,0.485,0.418,0.775,0.569c0.287,0.153,0.567,0.228,0.843,0.228c0.303,0,0.532-0.212,0.685-0.639
		c0.089-0.273,0.045-0.554-0.138-0.843c-0.185-0.288-0.395-0.554-0.636-0.798c-0.244-0.242-0.498-0.447-0.754-0.613
		c-0.261-0.169-0.417-0.252-0.48-0.252c-0.244,0-0.484,0.107-0.727,0.319C141.489,52.339,141.367,52.536,141.367,52.719"/>
	<path fill="#CCC2B6" d="M132.345,62.335c-0.125,0-0.186-0.06-0.186-0.183c-0.058-0.242-0.089-0.47-0.089-0.683
		c0-0.212-0.033-0.44-0.089-0.683c-0.033-0.092-0.033-0.19,0-0.297c0.027-0.105,0.057-0.219,0.089-0.343
		c-0.033-0.21-0.069-0.508-0.115-0.887c-0.045-0.38-0.067-0.935-0.067-1.664c0.06-0.152,0.135-0.387,0.228-0.706
		c0.09-0.319,0.138-0.555,0.138-0.707c0-0.365-0.011-0.79-0.026-1.276c-0.014-0.485-0.014-0.958,0-1.413
		c0.015-0.455,0.047-0.858,0.092-1.208c0.045-0.349,0.144-0.583,0.299-0.708c-0.065-0.363-0.065-0.728,0-1.092
		c0.059-0.365,0.136-0.722,0.226-1.072c0.09-0.35,0.182-0.677,0.272-0.979c0.091-0.304,0.122-0.591,0.091-0.867
		c0.183-0.272,0.321-0.523,0.411-0.751c0.091-0.228,0.187-0.478,0.294-0.753c0.107-0.272,0.23-0.577,0.367-0.91
		c0.137-0.333,0.341-0.745,0.615-1.231c0.028-0.184,0.12-0.411,0.276-0.684c0.149-0.272,0.332-0.547,0.545-0.819
		c0.211-0.335,0.469-0.669,0.775-1.004c0.031-0.029,0.128-0.12,0.294-0.272c0.168-0.152,0.358-0.319,0.57-0.501
		c0.215-0.183,0.434-0.357,0.663-0.524c0.226-0.167,0.448-0.295,0.658-0.388c0.274-0.03,0.501-0.006,0.687,0.069
		c0.181,0.075,0.303,0.145,0.363,0.204c0.335,0.153,0.533,0.267,0.594,0.342c0.06,0.077,0.12,0.25,0.183,0.523
		c0,0.247,0.021,0.435,0.067,0.571s0.065,0.267,0.065,0.387c0.062,0.395,0.018,0.86-0.133,1.389
		c-0.154,0.533-0.337,1.049-0.548,1.55c-0.214,0.502-0.418,0.935-0.616,1.299c-0.2,0.366-0.312,0.563-0.34,0.594
		c-0.183,0.333-0.312,0.66-0.391,0.979c-0.073,0.318-0.157,0.6-0.249,0.843c-0.306,0.427-0.57,0.904-0.8,1.436
		c-0.227,0.533-0.371,1.01-0.43,1.436c-0.397,1.156-0.831,2.226-1.299,3.213c-0.474,0.988-0.859,1.967-1.163,2.939
		c-0.335,0.974-0.631,1.71-0.891,2.21c-0.256,0.501-0.416,0.829-0.477,0.98c-0.123,0.245-0.252,0.523-0.388,0.843
		C132.776,61.857,132.586,62.123,132.345,62.335 M144.669,69.352c-0.104-0.181-0.197-0.348-0.271-0.501
		c-0.078-0.152-0.102-0.257-0.071-0.317c0-0.123-0.013-0.296-0.045-0.525c-0.03-0.228-0.044-0.327-0.044-0.297v-1.093
		c0-0.121-0.031-0.229-0.094-0.318c-0.06-0.092-0.088-0.212-0.088-0.364c0-0.093,0.006-0.183,0.019-0.275
		c0.019-0.091,0.026-0.167,0.026-0.228c0-0.091-0.032-0.196-0.092-0.317l-0.046-0.868c-0.062-0.12-0.105-0.326-0.138-0.615
		c-0.028-0.289-0.091-0.584-0.181-0.888c-0.09-0.303-0.212-0.571-0.362-0.799c-0.157-0.228-0.365-0.341-0.64-0.341
		c-0.336,0.09-0.633,0.221-0.89,0.387c-0.259,0.168-0.387,0.358-0.387,0.57c0,0.152-0.079,0.326-0.23,0.523
		c-0.149,0.2-0.226,0.479-0.226,0.844c0,0.334,0.022,0.645,0.066,0.935c0.048,0.289,0.07,0.615,0.07,0.978v0.413
		c0.152,0.334,0.24,0.623,0.272,0.864v0.228c0.013,0.073,0.046,0.135,0.06,0.206c-0.096,0.075-0.192,0.152-0.332,0.275
		c-0.362,0.318-0.753,0.668-1.163,1.046c-0.408,0.38-0.782,0.716-1.116,1.002c-0.335,0.29-0.5,0.419-0.5,0.388
		c-0.124,0.153-0.282,0.259-0.479,0.319c-0.2,0.061-0.374,0.107-0.525,0.136c-0.668,0.093-1.223,0.039-1.664-0.158
		c-0.438-0.198-0.789-0.44-1.048-0.729c-0.258-0.29-0.492-0.676-0.707-1.162c-0.151-0.243-0.266-0.547-0.341-0.912
		c-0.076-0.365-0.204-0.653-0.388-0.866c-0.031-0.212-0.098-0.417-0.204-0.617c-0.107-0.197-0.176-0.402-0.205-0.615
		c-0.063-0.333,0.029-0.644,0.273-0.934c0.24-0.288,0.44-0.586,0.592-0.888c0.667-1.063,1.229-2.195,1.687-3.396
		c0.456-1.198,0.896-2.376,1.321-3.531c0.121-0.213,0.267-0.485,0.433-0.818c0.165-0.336,0.319-0.663,0.456-0.981
		c0.138-0.32,0.245-0.616,0.32-0.889c0.076-0.275,0.113-0.487,0.113-0.639c0.275-0.334,0.463-0.645,0.569-0.935
		c0.108-0.288,0.191-0.675,0.254-1.162c0.119-0.606,0.332-1.253,0.638-1.936c0.303-0.685,0.56-1.36,0.774-2.028
		c0.333-0.881,0.622-1.498,0.865-1.846c0.242-0.348,0.351-0.661,0.318-0.934c0.032-0.152,0.075-0.305,0.139-0.457
		c0.091-0.302,0.273-0.698,0.548-1.185c0-0.183,0.029-0.402,0.09-0.66c0.061-0.259,0.061-0.494,0-0.707
		c-0.09-0.092-0.123-0.212-0.09-0.365c0.029-0.151,0.043-0.288,0.043-0.408c-0.089-0.519-0.234-0.981-0.435-1.391
		c-0.193-0.412-0.448-0.662-0.751-0.753c-0.061-0.029-0.156-0.091-0.294-0.182c-0.139-0.092-0.29-0.167-0.457-0.228
		c-0.167-0.061-0.326-0.113-0.479-0.16c-0.151-0.045-0.271-0.067-0.364-0.067c-0.213,0.03-0.364,0.061-0.455,0.092
		c-0.09,0.029-0.182,0.045-0.276,0.045c-0.302,0.06-0.517,0.189-0.637,0.386c-0.124,0.197-0.381,0.372-0.772,0.525
		c-0.397,0.485-0.831,0.91-1.299,1.274c-0.474,0.364-0.876,0.776-1.21,1.232c-0.244,0.335-0.478,0.66-0.708,0.98
		c-0.226,0.318-0.477,0.614-0.75,0.889c-0.064,0.182-0.129,0.357-0.205,0.523c-0.079,0.167-0.169,0.358-0.273,0.57
		c-0.106,0.213-0.222,0.472-0.34,0.774c-0.125,0.305-0.261,0.684-0.413,1.14c-0.273,0.578-0.576,1.292-0.911,2.141
		c-0.334,0.853-0.517,1.672-0.547,2.462c0.062,0.516-0.006,1.055-0.207,1.617c-0.196,0.562-0.312,1.132-0.341,1.708
		c-0.09,0.365-0.151,0.752-0.18,1.162c-0.031,0.41-0.053,0.821-0.071,1.232c-0.014,0.41-0.029,0.783-0.046,1.117
		c-0.014,0.333-0.036,0.591-0.069,0.774l0.093,0.502c-0.093,0.12-0.136,0.34-0.136,0.66v0.616c0.06,0.182,0.083,0.372,0.068,0.568
		c-0.014,0.199-0.008,0.404,0.025,0.618c0.059,0.424,0.065,0.918,0.019,1.479c-0.044,0.564-0.036,1.056,0.024,1.482
		c0,0.029,0.022,0.121,0.07,0.272c0.045,0.152,0.068,0.245,0.068,0.274c0.092,0.759,0,1.383-0.273,1.869
		c-0.215,0.363-0.455,0.683-0.73,0.958c-0.09,0.122-0.191,0.234-0.295,0.342c-0.104,0.106-0.22,0.233-0.341,0.386
		c-0.09,0.124-0.19,0.282-0.296,0.479c-0.105,0.197-0.218,0.373-0.342,0.524c-0.031,0.03-0.052,0.021-0.069-0.022
		c-0.014-0.046-0.036-0.052-0.066-0.023c-0.034,0.03-0.122,0.067-0.274,0.114c-0.153,0.047-0.229,0.084-0.229,0.114
		c0,0.03,0.008,0.078,0.022,0.137c0.017,0.061,0.01,0.106-0.022,0.135c-0.061,0.214-0.028,0.404,0.092,0.571
		c0.123,0.167,0.305,0.222,0.547,0.158c0.09-0.029,0.213-0.097,0.362-0.204c0.155-0.106,0.276-0.205,0.367-0.297
		c0.182-0.182,0.426-0.392,0.732-0.637c0.301-0.244,0.559-0.485,0.774-0.729c0.12-0.152,0.235-0.289,0.342-0.409
		c0.104-0.121,0.232-0.259,0.385-0.411c0.03,0,0.122,0.137,0.275,0.411c0.151,0.271,0.322,0.576,0.524,0.911
		c0.198,0.334,0.38,0.668,0.545,1.002c0.168,0.333,0.297,0.547,0.388,0.638c0.182,0.304,0.327,0.525,0.435,0.661
		c0.103,0.136,0.189,0.228,0.25,0.272c0.06,0.046,0.122,0.061,0.18,0.046c0.065-0.016,0.123-0.007,0.186,0.023
		c0.303,0.243,0.567,0.348,0.796,0.318c0.228-0.029,0.462,0.029,0.706,0.184c0.064,0.06,0.15,0.083,0.274,0.067
		c0.12-0.016,0.229,0.008,0.321,0.068c0.24-0.061,0.462-0.145,0.66-0.249c0.197-0.107,0.371-0.191,0.522-0.251
		c0.154,0,0.273,0.051,0.364,0.158c0.09,0.107,0.258,0.145,0.502,0.114c0.182-0.03,0.319-0.138,0.411-0.32
		c0.089-0.182,0.196-0.379,0.317-0.593c0.123-0.211,0.259-0.432,0.409-0.66c0.154-0.227,0.367-0.401,0.638-0.524
		c0.425-0.395,0.707-0.684,0.844-0.866c0.135-0.182,0.265-0.319,0.386-0.411c0.062-0.06,0.155-0.104,0.277-0.136
		c0.118-0.03,0.248-0.106,0.385-0.228c0.136-0.121,0.282-0.297,0.434-0.523c0.028-0.044,0.057-0.111,0.086-0.164
		c0.057,0.197,0.089,0.411,0.164,0.597c0.198,0.485,0.434,0.92,0.704,1.297c0.275,0.379,0.548,0.676,0.825,0.889
		c0.272,0.213,0.515,0.32,0.727,0.32c0.242,0,0.487-0.091,0.73-0.275c0.242-0.182,0.362-0.438,0.362-0.775
		c0-0.12-0.047-0.272-0.133-0.455C144.877,69.719,144.776,69.536,144.669,69.352"/>
	<path fill="#CCC2B6" d="M104.499,65.07c0-0.061,0.028-0.175,0.089-0.342c0.062-0.166,0.123-0.341,0.183-0.523
		c0.062-0.183,0.122-0.35,0.183-0.502c0.061-0.151,0.105-0.243,0.137-0.273c0.061-0.062,0.115-0.137,0.159-0.229
		c0.046-0.09,0.085-0.167,0.116-0.227c0.121-0.242,0.341-0.449,0.659-0.616c0.321-0.167,0.631-0.265,0.936-0.296
		c0.121,0,0.18,0.077,0.18,0.229c-0.029,0.182-0.098,0.371-0.205,0.567c-0.107,0.199-0.19,0.327-0.248,0.389
		c-0.064,0.092-0.093,0.152-0.093,0.182s-0.016,0.06-0.044,0.09c-0.032,0.032-0.094,0.1-0.183,0.206
		c-0.093,0.108-0.246,0.266-0.456,0.479c-0.033,0.031-0.122,0.099-0.273,0.205c-0.153,0.105-0.311,0.213-0.48,0.318
		c-0.169,0.107-0.319,0.199-0.455,0.273C104.566,65.077,104.499,65.101,104.499,65.07 M122.456,60.01
		c-0.154-0.182-0.381-0.349-0.683-0.501c-0.062-0.028-0.109-0.068-0.138-0.113c-0.032-0.046-0.123-0.038-0.273,0.022
		c-0.062,0.03-0.184,0.084-0.366,0.161c-0.182,0.076-0.273,0.144-0.273,0.205c-0.183,0.091-0.312,0.211-0.387,0.362
		c-0.076,0.153-0.162,0.291-0.249,0.412l-0.185,0.182c-0.152,0.152-0.304,0.273-0.457,0.365c-0.151,0.091-0.256,0.213-0.32,0.364
		c-0.18,0.243-0.333,0.487-0.452,0.73c-0.124,0.244-0.274,0.486-0.458,0.729c-0.213,0.243-0.41,0.478-0.59,0.706
		c-0.186,0.228-0.352,0.464-0.502,0.706c-0.154,0.336-0.273,0.654-0.365,0.957c-0.09,0.305-0.245,0.593-0.456,0.866
		c-0.09,0.152-0.273,0.259-0.549,0.32c-0.029,0-0.083-0.061-0.158-0.183c-0.075-0.122-0.144-0.251-0.202-0.387
		c-0.063-0.137-0.124-0.273-0.186-0.409c-0.061-0.137-0.107-0.22-0.137-0.25c-0.363-0.425-0.706-0.851-1.023-1.276
		c-0.322-0.425-0.77-0.699-1.345-0.821c-0.305,0.029-0.541,0.083-0.708,0.158c-0.166,0.079-0.325,0.268-0.477,0.571
		c-0.032,0-0.046,0.046-0.046,0.137v0.183c0.031,0.212,0.068,0.409,0.114,0.592c0.044,0.183,0.144,0.364,0.295,0.545
		c0.155,0.214,0.238,0.351,0.251,0.411c0.015,0.061,0.098,0.183,0.251,0.365l0.685,1.185c0.007,0.037,0.02,0.059,0.026,0.091h-0.392
		c-0.122,0-0.273,0.077-0.455,0.228c-0.032,0-0.091,0.038-0.183,0.114c-0.092,0.077-0.191,0.16-0.298,0.251
		c-0.107,0.09-0.208,0.168-0.317,0.228c-0.106,0.061-0.175,0.09-0.204,0.09c-0.063,0.06-0.175,0.153-0.34,0.274
		c-0.169,0.122-0.27,0.182-0.298,0.182c-0.215,0.062-0.388,0.137-0.525,0.229c-0.138,0.091-0.251,0.167-0.342,0.227
		c-0.334,0.273-0.676,0.457-1.024,0.547c-0.351,0.09-0.784,0.137-1.302,0.137c-0.24,0.031-0.53-0.007-0.861-0.114
		c-0.336-0.106-0.624-0.251-0.868-0.433c-0.028,0-0.078-0.051-0.137-0.159c-0.06-0.105-0.132-0.219-0.205-0.342
		c-0.078-0.121-0.146-0.244-0.206-0.365c-0.062-0.123-0.105-0.197-0.136-0.228c-0.092-0.151-0.167-0.235-0.229-0.25
		c-0.06-0.013-0.106-0.022-0.136-0.022c-0.029,0-0.047-0.022-0.047-0.068v-0.432c-0.031-0.183,0.085-0.349,0.345-0.502
		c0.257-0.152,0.491-0.274,0.706-0.365c0.21-0.181,0.385-0.333,0.521-0.456c0.137-0.121,0.268-0.234,0.391-0.34
		c0.118-0.107,0.208-0.176,0.272-0.206c0.12-0.092,0.295-0.229,0.522-0.412c0.229-0.183,0.375-0.378,0.432-0.592v-0.045
		c0.152-0.212,0.269-0.373,0.342-0.479c0.079-0.106,0.137-0.212,0.185-0.32c0.044-0.106,0.099-0.219,0.159-0.341
		c0.061-0.122,0.15-0.305,0.272-0.547c0.062-0.062,0.09-0.166,0.09-0.319c0-0.03-0.014-0.129-0.043-0.296
		c-0.03-0.167-0.068-0.333-0.116-0.5c-0.044-0.167-0.084-0.326-0.113-0.479c-0.029-0.153-0.044-0.243-0.044-0.274
		c0-0.03-0.031-0.075-0.093-0.138c-0.029-0.028-0.06-0.044-0.09-0.044c-0.182-0.304-0.381-0.485-0.592-0.547
		c-0.214-0.061-0.457-0.106-0.73-0.138c-0.151-0.028-0.334-0.006-0.546,0.069c-0.213,0.076-0.394,0.176-0.545,0.296
		c-0.308,0.154-0.686,0.412-1.142,0.776c-0.455,0.364-0.818,0.758-1.091,1.185c-0.609,0.728-1.028,1.382-1.256,1.959
		c-0.226,0.577-0.387,1.292-0.479,2.142c-0.119,0.152-0.195,0.281-0.227,0.388c-0.029,0.106-0.029,0.267,0,0.478
		c-0.061,0.183-0.061,0.351,0,0.501c0.061,0.154,0.092,0.335,0.092,0.548c0.062,0.121,0.115,0.259,0.159,0.411
		c0.047,0.152,0.084,0.288,0.113,0.41c0.153,0.273,0.321,0.517,0.502,0.729c0.186,0.212,0.366,0.396,0.548,0.547
		c0.151,0.213,0.341,0.372,0.57,0.479c0.227,0.108,0.417,0.222,0.569,0.342c0.15,0.152,0.243,0.258,0.275,0.318
		c0.027,0.061,0.105,0.106,0.226,0.137c0.062,0,0.219,0.046,0.479,0.138c0.257,0.09,0.405,0.166,0.434,0.228
		c0.061,0,0.144-0.009,0.251-0.023c0.105-0.015,0.188-0.007,0.251,0.023l0.819,0.091l0.137-0.135l0.272-0.094
		c0.064-0.03,0.133-0.061,0.208-0.09c0.075-0.031,0.144-0.047,0.205-0.047c0.031,0,0.114,0.007,0.252,0.023
		c0.135,0.016,0.233,0.023,0.297,0.023c0.18-0.152,0.379-0.274,0.59-0.365c0.214-0.091,0.441-0.243,0.684-0.455
		c0.183-0.395,0.487-0.639,0.912-0.731l0.183-0.227c0.212-0.242,0.416-0.401,0.614-0.478c0.201-0.076,0.404-0.206,0.615-0.388
		c0.336-0.243,0.569-0.394,0.707-0.455c0.136-0.062,0.342-0.228,0.615-0.502c0.029-0.031,0.047-0.082,0.047-0.158v-0.001
		c0.014,0.038,0.035,0.074,0.043,0.114c0.03,0.122,0.076,0.258,0.137,0.41c0.032,0.122,0.061,0.289,0.092,0.502
		c0.029,0.212,0.054,0.432,0.068,0.66c0.014,0.229,0.04,0.44,0.068,0.64c0.03,0.197,0.044,0.355,0.044,0.478
		c0,0.09,0.01,0.259,0.024,0.501s0.023,0.409,0.023,0.501c0.03,0.091,0.039,0.189,0.022,0.294c-0.016,0.108-0.022,0.223-0.022,0.345
		c0.03,0.09,0.075,0.235,0.138,0.432c0.059,0.198,0.105,0.326,0.137,0.388c0.09,0.335,0.257,0.576,0.499,0.729
		c0.244,0.151,0.485,0.213,0.729,0.183c0.305-0.031,0.542-0.104,0.707-0.228c0.168-0.123,0.284-0.275,0.342-0.457
		c0.061-0.181,0.107-0.371,0.139-0.568c0.028-0.199,0.076-0.374,0.136-0.525v-0.75c0-0.32,0.014-0.555,0.047-0.707
		c0-0.06,0.013-0.16,0.043-0.297c0.029-0.138,0.061-0.279,0.092-0.434c0.029-0.09,0.054-0.219,0.068-0.386
		c0.016-0.167,0.037-0.343,0.069-0.524c0.028-0.182,0.054-0.35,0.067-0.502c0.016-0.151,0.037-0.241,0.069-0.272
		c0-0.061,0.014-0.115,0.044-0.16c0.031-0.045,0.048-0.082,0.048-0.113c0.029-0.06,0.044-0.158,0.044-0.297
		c0-0.136,0.043-0.251,0.136-0.342c0.058-0.243,0.161-0.485,0.297-0.729c0.135-0.242,0.234-0.47,0.294-0.682
		c0-0.092-0.007-0.183-0.021-0.275c-0.017-0.09-0.01-0.166,0.021-0.227c0.062-0.151,0.159-0.274,0.295-0.366
		c0.136-0.089,0.253-0.242,0.343-0.454c0.062-0.094,0.097-0.23,0.115-0.411c0.014-0.184,0.083-0.365,0.204-0.549
		c0.059-0.09,0.107-0.166,0.137-0.226c0.03-0.06,0.107-0.123,0.229-0.183c0.058-0.395,0.208-0.774,0.453-1.138
		c0.061-0.123,0.13-0.213,0.204-0.275c0.079-0.059,0.146-0.122,0.205-0.183c0.093-0.09,0.153-0.175,0.186-0.25
		c0.029-0.076,0.104-0.144,0.227-0.206c0.12-0.061,0.227-0.16,0.319-0.296c0.09-0.136,0.211-0.221,0.365-0.25
		c0.121,0.122,0.22,0.205,0.295,0.25c0.077,0.046,0.159,0.113,0.251,0.205c0.124,0.091,0.288,0.137,0.503,0.137
		c0.241-0.031,0.395-0.197,0.456-0.5s0.076-0.487,0.044-0.548C122.728,60.422,122.606,60.194,122.456,60.01"/>
	<path fill="#CCC2B6" d="M102.081,58.804c0.122-0.137,0.244-0.297,0.364-0.479c0.123-0.183,0.184-0.364,0.184-0.547
		c-0.033-0.516-0.184-0.888-0.457-1.118c-0.272-0.226-0.484-0.341-0.638-0.341c-0.303,0-0.568,0.145-0.797,0.434
		c-0.226,0.289-0.431,0.615-0.615,0.98c-0.182,0.364-0.333,0.728-0.456,1.093c-0.122,0.364-0.228,0.622-0.318,0.774
		c-0.52,0.822-0.935,1.513-1.256,2.074c-0.316,0.562-0.575,1.049-0.771,1.458c-0.198,0.41-0.383,0.775-0.549,1.095
		c-0.167,0.318-0.356,0.645-0.571,0.979c-0.09,0.245-0.208,0.547-0.361,0.913c-0.155,0.365-0.298,0.72-0.431,1.07
		c-0.14,0.35-0.276,0.66-0.413,0.936c-0.136,0.272-0.222,0.41-0.252,0.41c-0.122,0.122-0.22,0.334-0.297,0.638
		c-0.076,0.304-0.22,0.486-0.431,0.546c-0.062,0-0.116-0.051-0.159-0.159c-0.046-0.106-0.093-0.228-0.137-0.364
		c-0.046-0.137-0.085-0.274-0.113-0.411c-0.033-0.137-0.046-0.235-0.046-0.295v-0.273c0-0.214-0.04-0.562-0.115-1.048
		s-0.159-0.965-0.251-1.437c-0.089-0.47-0.165-0.865-0.226-1.185c-0.061-0.318-0.09-0.432-0.09-0.341v-0.457
		c0-0.335-0.063-0.698-0.186-1.095c-0.123-0.392-0.396-0.574-0.819-0.544c-0.545,0.029-0.95,0.288-1.208,0.773
		c-0.258,0.486-0.37,0.957-0.341,1.412c0,0.031,0.016,0.085,0.046,0.162c0.03,0.076,0.046,0.129,0.046,0.158v0.366
		c0.028,0.243,0.076,0.463,0.137,0.66c0.057,0.198,0.09,0.371,0.09,0.523c0.153,0.488,0.236,0.958,0.25,1.413
		c0.015,0.456,0.083,0.912,0.205,1.368c0.093,0.09,0.15,0.257,0.183,0.5c0.031,0.245,0.061,0.502,0.09,0.775
		c0.028,0.275,0.06,0.524,0.092,0.752c0.028,0.228,0.073,0.373,0.136,0.434c0.061,0.304,0.166,0.606,0.32,0.911
		c0.151,0.304,0.334,0.575,0.548,0.82c0.209,0.243,0.428,0.44,0.658,0.592c0.229,0.152,0.462,0.229,0.707,0.229
		c0.243-0.031,0.478-0.099,0.707-0.205c0.228-0.107,0.37-0.298,0.433-0.569c0.151-0.183,0.278-0.426,0.388-0.729
		c0.105-0.305,0.219-0.533,0.341-0.684c0.061-0.185,0.151-0.433,0.273-0.752c0.119-0.319,0.251-0.646,0.387-0.98
		c0.138-0.335,0.274-0.623,0.41-0.866c0.136-0.243,0.253-0.378,0.341-0.41c0-0.304,0.05-0.57,0.136-0.798
		c0.095-0.228,0.187-0.433,0.275-0.615c0.09-0.182,0.174-0.357,0.252-0.524c0.074-0.167,0.111-0.326,0.111-0.478
		c0-0.152,0.053-0.281,0.162-0.388c0.106-0.106,0.204-0.205,0.296-0.295c0.12-0.212,0.289-0.54,0.5-0.979
		c0.212-0.441,0.304-0.737,0.275-0.889c0.272-0.516,0.491-0.858,0.658-1.024c0.168-0.168,0.327-0.404,0.48-0.708l0.592-0.638
		c0.029-0.274,0.114-0.539,0.252-0.798c0.137-0.257,0.219-0.554,0.25-0.889l0.318-0.32c-0.061-0.059-0.038-0.143,0.067-0.25
		C101.846,59.063,101.961,58.939,102.081,58.804"/>
	<path fill="#CCC2B6" d="M88.548,66.573c0-0.031-0.019-0.09-0.047-0.183c-0.029-0.09-0.061-0.136-0.09-0.136
		c-0.182-0.334-0.402-0.507-0.66-0.524c-0.258-0.015-0.541-0.021-0.844-0.021l-0.868,0.5c-0.089,0.062-0.165,0.167-0.225,0.32
		c-0.062,0.152-0.108,0.289-0.138,0.409c0,0.122,0.036,0.39,0.115,0.799c0.073,0.41,0.112,0.675,0.112,0.798
		c0,0.151-0.015,0.34-0.045,0.568c-0.028,0.228-0.084,0.44-0.16,0.64c-0.076,0.197-0.176,0.364-0.297,0.5
		c-0.12,0.136-0.287,0.205-0.5,0.205c-0.212-0.028-0.387-0.12-0.522-0.274c-0.138-0.152-0.245-0.318-0.32-0.5
		c-0.076-0.183-0.13-0.357-0.161-0.526c-0.03-0.166-0.046-0.28-0.046-0.341c0-0.152,0.054-0.327,0.16-0.523
		c0.106-0.199,0.236-0.389,0.387-0.571c0.153-0.183,0.29-0.356,0.412-0.524c0.118-0.167,0.209-0.326,0.273-0.478
		c0.06-0.092,0.181-0.296,0.365-0.616c0.181-0.318,0.302-0.492,0.364-0.524c0.06-0.15,0.118-0.257,0.182-0.318
		c0.059-0.06,0.09-0.196,0.09-0.41c0-0.09-0.098-0.219-0.294-0.387c-0.2-0.166-0.326-0.25-0.39-0.25c-0.12,0-0.25,0.061-0.385,0.181
		c-0.136,0.123-0.297,0.153-0.478,0.091c-0.214-0.061-0.352-0.061-0.411,0c-0.062,0.062-0.123,0.108-0.182,0.137
		c-0.031,0-0.093,0.069-0.184,0.205c-0.09,0.139-0.182,0.297-0.273,0.479c-0.091,0.183-0.181,0.351-0.273,0.503
		c-0.09,0.152-0.167,0.256-0.228,0.318c-0.031,0-0.085,0.021-0.161,0.068c-0.074,0.045-0.112,0.085-0.112,0.114
		c-0.091,0.06-0.25,0.197-0.479,0.41c-0.227,0.213-0.356,0.349-0.387,0.41c-0.182,0.152-0.427,0.373-0.729,0.661
		c-0.305,0.29-0.457,0.541-0.457,0.753c0,0.818,0.304,1.581,0.913,2.278c0.061,0.09,0.151,0.167,0.273,0.228
		c0.122,0.062,0.227,0.152,0.318,0.272c0.061,0.123,0.144,0.267,0.251,0.434c0.106,0.165,0.25,0.265,0.432,0.294
		c0.029,0,0.1,0.008,0.204,0.024c0.107,0.015,0.161,0.038,0.161,0.068c0.122,0.031,0.228,0.068,0.319,0.113
		c0.091,0.047,0.198,0.069,0.318,0.069c0.062,0,0.122-0.009,0.183-0.022c0.061-0.017,0.135-0.024,0.229-0.024
		c0.09,0,0.182,0.017,0.274,0.047c0.09,0.03,0.181,0.046,0.273,0.046c0.029,0,0.073-0.016,0.136-0.046
		c0.058-0.03,0.104-0.047,0.137-0.047c0.365-0.059,0.711-0.136,1.048-0.229c0.333-0.088,0.622-0.271,0.867-0.547
		c0.059-0.089,0.103-0.188,0.136-0.295c0.031-0.105,0.074-0.189,0.136-0.251c0.243-0.303,0.425-0.652,0.547-1.047
		c0.029-0.03,0.083-0.182,0.161-0.457c0.074-0.273,0.141-0.454,0.203-0.545c0.093-0.092,0.153-0.19,0.182-0.298
		c0.029-0.104,0.093-0.204,0.183-0.296c0.121-0.058,0.226-0.209,0.318-0.455c0.093-0.243,0.137-0.44,0.137-0.592
		c0-0.151-0.044-0.256-0.137-0.32C88.774,66.877,88.668,66.756,88.548,66.573"/>
	<path fill="#CCC2B6" d="M66.81,69.559c-0.153,0.318-0.304,0.524-0.457,0.616c-0.03,0-0.053,0.006-0.067,0.022
		c-0.016,0.016-0.04,0.022-0.069,0.022c-0.031,0.031-0.075,0.047-0.137,0.047c-0.061,0.061-0.091,0.113-0.091,0.158
		c0,0.046-0.03,0.1-0.091,0.159c-0.333,0.335-0.745,0.533-1.231,0.594c-0.06,0-0.137-0.047-0.226-0.137
		c-0.091-0.092-0.137-0.168-0.137-0.228c0.06-0.151,0.205-0.312,0.433-0.479c0.228-0.167,0.388-0.327,0.479-0.479
		c0.091-0.09,0.211-0.181,0.364-0.272c0.151-0.092,0.258-0.152,0.318-0.183c0.031-0.03,0.061-0.075,0.091-0.137
		s0.076-0.121,0.137-0.182c0.03,0,0.129-0.091,0.297-0.273c0.166-0.183,0.279-0.274,0.341-0.274c0.091-0.03,0.144,0,0.16,0.091
		c0.014,0.091,0.023,0.152,0.023,0.183C67.006,68.99,66.961,69.24,66.81,69.559 M79.935,70.948l-2.37-0.546
		c-0.214-0.091-0.396-0.167-0.547-0.228c-0.151-0.06-0.295-0.121-0.433-0.184c-0.137-0.059-0.221-0.105-0.25-0.137l-0.595-0.637
		c-0.06-0.061-0.181-0.265-0.365-0.616c-0.181-0.348-0.272-0.689-0.272-1.025c0-0.12,0.022-0.319,0.069-0.592
		c0.045-0.273,0.104-0.546,0.182-0.821c0.076-0.273,0.145-0.516,0.205-0.729c0.061-0.212,0.105-0.335,0.137-0.365l0.547-0.548
		c0.029-0.06,0.151-0.136,0.365-0.228c0.212-0.09,0.393-0.181,0.546-0.273h0.456c0.091-0.151,0.176-0.251,0.251-0.296
		c0.076-0.047,0.115-0.16,0.115-0.343c0-0.302-0.107-0.523-0.319-0.659c-0.213-0.137-0.487-0.28-0.82-0.433h-0.593
		c-0.122,0-0.29,0.014-0.502,0.044c-0.152,0.334-0.371,0.563-0.66,0.683c-0.288,0.123-0.433,0.214-0.433,0.274
		c-0.122,0.072-0.215,0.197-0.33,0.285c-0.11,0.02-0.232,0.049-0.33,0.057c-0.199,0.016-0.374,0.038-0.525,0.068
		c-0.213,0.062-0.472,0.19-0.773,0.387c-0.308,0.199-0.58,0.357-0.821,0.479c-0.062,0-0.191,0.055-0.389,0.16
		c-0.198,0.106-0.326,0.158-0.387,0.158c-0.03,0-0.062,0.009-0.09,0.024c-0.031,0.015-0.062,0.023-0.093,0.023h-0.136
		c-0.242,0.152-0.54,0.32-0.888,0.501c-0.35,0.183-0.646,0.289-0.887,0.318h-0.14c-0.06,0-0.106-0.014-0.136-0.045
		c-0.031-0.06-0.113-0.152-0.25-0.273c-0.139-0.122-0.222-0.212-0.251-0.274c-0.031-0.029-0.061-0.098-0.092-0.204
		c-0.03-0.107-0.06-0.175-0.091-0.205l-0.227-0.229c-0.091-0.06-0.183-0.136-0.273-0.228c-0.122-0.152-0.236-0.289-0.343-0.409
		c-0.106-0.121-0.204-0.259-0.295-0.411c-0.214-0.182-0.417-0.319-0.614-0.41c-0.199-0.091-0.328-0.304-0.389-0.638
		c0-0.183,0.053-0.341,0.159-0.479c0.107-0.138,0.22-0.273,0.342-0.411c0.121-0.136,0.236-0.265,0.341-0.387
		c0.106-0.121,0.144-0.274,0.115-0.456c-0.03-0.062-0.061-0.136-0.091-0.228c-0.031-0.09-0.077-0.151-0.137-0.182
		c-0.151-0.06-0.273-0.114-0.365-0.159c-0.09-0.045-0.229-0.069-0.409-0.069c-0.244,0-0.473,0.091-0.684,0.274
		c-0.062,0.031-0.154,0.092-0.273,0.182c-0.123,0.091-0.199,0.152-0.229,0.182c-0.182,0.153-0.395,0.312-0.637,0.479
		c-0.244,0.167-0.442,0.387-0.591,0.66c-0.153,0.213-0.251,0.428-0.297,0.64c-0.046,0.212-0.038,0.379,0.022,0.501
		c0.03,0.091,0.076,0.211,0.138,0.364c0.06,0.151,0.091,0.243,0.091,0.274c0.335,0.333,0.6,0.636,0.797,0.91
		c0.198,0.274,0.449,0.578,0.751,0.913c0.031,0.032,0.129,0.107,0.296,0.228c0.167,0.123,0.267,0.181,0.297,0.181
		c0.091,0.123,0.167,0.268,0.229,0.434c0.061,0.168,0.167,0.281,0.318,0.342l0.319,0.638l-0.228,0.411l-0.821,0.41
		c-0.243,0.244-0.501,0.426-0.774,0.547c-0.272,0.121-0.5,0.273-0.684,0.456c-0.152,0.091-0.312,0.198-0.478,0.318
		c-0.167,0.122-0.341,0.228-0.525,0.319c-0.151,0.091-0.302,0.167-0.455,0.228c-0.152,0.061-0.304,0.136-0.456,0.228
		c-0.273,0.152-0.456,0.333-0.546,0.545c-0.094,0.032-0.176,0.062-0.253,0.093c-0.075,0.03-0.129,0.045-0.159,0.045
		c-0.031,0.031-0.098,0.107-0.205,0.228s-0.159,0.214-0.159,0.274c-0.153,0.182-0.297,0.296-0.433,0.342
		c-0.136,0.045-0.19,0.189-0.16,0.432c0.062,0.423,0.304,0.7,0.729,0.82c0.425,0.12,0.777,0.166,1.049,0.138
		c0.121,0.061,0.228,0.105,0.318,0.136c0.122-0.061,0.29-0.061,0.502,0c0.152,0.061,0.251,0.099,0.296,0.114
		c0.045,0.016,0.145,0.022,0.295,0.022c0.213-0.031,0.388-0.061,0.526-0.091c0.135-0.03,0.311-0.076,0.523-0.137
		c0.09-0.062,0.181-0.113,0.272-0.16c0.09-0.046,0.184-0.085,0.273-0.112h0.366c0.12,0,0.229-0.047,0.318-0.138
		c0.152,0,0.275,0.015,0.365,0.045c0.091,0.03,0.196,0.015,0.319-0.045c0.244-0.092,0.547-0.267,0.911-0.524
		c0.366-0.26,0.578-0.479,0.638-0.66l0.185-0.092l0.089-0.183c0.031-0.062,0.062-0.104,0.091-0.137
		c0.061-0.09,0.137-0.15,0.228-0.182c0.091-0.03,0.165-0.076,0.228-0.135c0.061-0.061,0.106-0.183,0.137-0.366
		c0.029-0.18,0.076-0.317,0.136-0.409c0.153-0.242,0.275-0.456,0.365-0.638c0.093-0.182,0.138-0.395,0.138-0.638
		c-0.03-0.061-0.016-0.143,0.046-0.25c0.06-0.106,0.091-0.19,0.091-0.251l-0.047-0.592c-0.029-0.152,0.076-0.333,0.32-0.547
		c0.243-0.212,0.424-0.379,0.548-0.501c0.06-0.09,0.114-0.143,0.158-0.158c0.045-0.016,0.129-0.053,0.251-0.114
		c0.274-0.152,0.493-0.281,0.661-0.389c0.166-0.106,0.387-0.219,0.66-0.34c0.155-0.031,0.305-0.085,0.458-0.161
		c0.146-0.073,0.292-0.108,0.439-0.111c-0.173,0.414-0.316,0.842-0.418,1.297c-0.106,0.471-0.159,0.933-0.159,1.389
		c0,1.337,0.297,2.311,0.89,2.916c0.591,0.609,1.571,1.08,2.938,1.415c0.06,0,0.144-0.017,0.251-0.047
		c0.106-0.03,0.189-0.045,0.253-0.045c0.301,0.182,0.636,0.272,1,0.272c0.06,0,0.122-0.006,0.182-0.022
		c0.06-0.017,0.138-0.022,0.229-0.022c0.151,0,0.287-0.009,0.411-0.021c0.121-0.018,0.243-0.024,0.364-0.024
		c0.152,0,0.312,0.016,0.479,0.046c0.166,0.029,0.296,0.029,0.386,0c0.243,0,0.45-0.046,0.615-0.136
		c0.167-0.092,0.252-0.289,0.252-0.593c0-0.365-0.055-0.556-0.16-0.571C80.352,71.186,80.177,71.102,79.935,70.948"/>
	<path fill="#CCC2B6" d="M55.894,54.155c0.227,0.228,0.488,0.418,0.776,0.569c0.288,0.153,0.569,0.229,0.842,0.229
		c0.303,0,0.532-0.212,0.684-0.64c0.09-0.272,0.045-0.554-0.137-0.843c-0.182-0.288-0.395-0.554-0.64-0.798
		c-0.242-0.241-0.493-0.447-0.75-0.613c-0.26-0.169-0.419-0.251-0.479-0.251c-0.244,0-0.486,0.106-0.73,0.318
		c-0.243,0.212-0.363,0.41-0.363,0.593c0,0.211,0.074,0.448,0.227,0.706C55.476,53.684,55.667,53.927,55.894,54.155"/>
	<path fill="#CCC2B6" d="M58.401,69.352c-0.107-0.181-0.197-0.348-0.272-0.501c-0.076-0.152-0.099-0.257-0.069-0.317
		c0-0.123-0.014-0.296-0.044-0.525c-0.031-0.228-0.047-0.327-0.047-0.297v-1.093c0-0.121-0.03-0.229-0.09-0.319
		c-0.062-0.091-0.091-0.212-0.091-0.364c0-0.093,0.007-0.183,0.023-0.275c0.015-0.091,0.022-0.167,0.022-0.228
		c0-0.091-0.029-0.196-0.091-0.317l-0.045-0.868c-0.061-0.12-0.107-0.326-0.136-0.615c-0.03-0.289-0.092-0.585-0.181-0.888
		c-0.093-0.303-0.215-0.571-0.366-0.799c-0.152-0.228-0.364-0.341-0.638-0.341c-0.335,0.09-0.631,0.22-0.889,0.387
		c-0.258,0.168-0.388,0.358-0.388,0.57c0,0.152-0.075,0.326-0.228,0.523c-0.153,0.2-0.229,0.479-0.229,0.843
		c0,0.335,0.024,0.646,0.068,0.935c0.045,0.289,0.068,0.616,0.068,0.978v0.413c0.154,0.334,0.245,0.623,0.274,0.864v0.228
		c0.092,0.547,0.235,1.064,0.433,1.551c0.198,0.485,0.432,0.92,0.707,1.297c0.273,0.379,0.547,0.676,0.82,0.889
		c0.273,0.213,0.517,0.32,0.729,0.32c0.244,0,0.486-0.091,0.73-0.275c0.242-0.182,0.364-0.439,0.364-0.775
		c0-0.121-0.044-0.273-0.136-0.455C58.605,69.718,58.508,69.536,58.401,69.352"/>
	<path fill="#CCC2B6" d="M47.349,60.125c-0.06,0.198-0.136,0.387-0.228,0.569s-0.182,0.342-0.274,0.479
		c-0.09,0.136-0.182,0.205-0.273,0.205c-0.121,0-0.22-0.053-0.295-0.161c-0.076-0.104-0.153-0.243-0.229-0.41
		c-0.075-0.167-0.135-0.342-0.181-0.524c-0.046-0.182-0.083-0.318-0.115-0.409c0,0.031-0.007-0.046-0.023-0.229
		c-0.014-0.182,0.008-0.303,0.07-0.364c0-0.273-0.032-0.54-0.092-0.798c-0.061-0.257-0.107-0.509-0.137-0.751
		c-0.031-0.244-0.008-0.479,0.069-0.708c0.076-0.228,0.082-0.403,0.023-0.524c-0.062-0.183-0.107-0.357-0.136-0.523
		c-0.031-0.167-0.062-0.342-0.092-0.525c0-0.09-0.008-0.182-0.022-0.273c-0.016-0.091-0.023-0.167-0.023-0.228
		c0-0.06-0.008-0.144-0.023-0.25c-0.016-0.107-0.023-0.19-0.023-0.251c0.092-0.333,0.167-0.646,0.229-0.935
		c0.06-0.288,0.076-0.6,0.046-0.935c0-0.06-0.017-0.136-0.046-0.226c-0.031-0.093-0.044-0.183-0.044-0.275
		c-0.031-0.364,0-0.713,0.09-1.048c0.091-0.333,0.189-0.66,0.296-0.98c0.106-0.318,0.211-0.623,0.319-0.912
		c0.104-0.285,0.174-0.585,0.204-0.888c0.092-0.212,0.25-0.47,0.479-0.774c0.229-0.304,0.462-0.593,0.706-0.866
		c0.243-0.272,0.471-0.517,0.685-0.728c0.212-0.212,0.334-0.32,0.364-0.32c0.06,0,0.151-0.025,0.273-0.069
		c0.121-0.046,0.197-0.069,0.229-0.069c0.454-0.03,0.804,0.023,1.047,0.161c0.244,0.135,0.379,0.433,0.41,0.888
		c0,0.394,0.007,0.631,0.024,0.707c0.015,0.076,0.023,0.144,0.023,0.205c0.06,1.276-0.009,2.408-0.207,3.395
		s-0.477,1.998-0.844,3.031c-0.272,0.425-0.516,0.949-0.729,1.572c-0.212,0.624-0.403,1.23-0.567,1.824
		c-0.169,0.592-0.313,1.116-0.435,1.572c-0.123,0.457-0.243,0.746-0.366,0.866C47.471,59.769,47.41,59.927,47.349,60.125
		 M28.755,65.07c0-0.061,0.03-0.175,0.092-0.341c0.061-0.167,0.121-0.342,0.181-0.524c0.061-0.183,0.122-0.35,0.183-0.502
		c0.061-0.151,0.105-0.243,0.136-0.273c0.061-0.062,0.114-0.137,0.161-0.229c0.046-0.091,0.083-0.167,0.113-0.227
		c0.121-0.242,0.342-0.449,0.662-0.616c0.318-0.167,0.629-0.265,0.935-0.297c0.121,0,0.183,0.076,0.183,0.229
		c-0.031,0.182-0.1,0.371-0.206,0.568c-0.105,0.198-0.19,0.326-0.249,0.388c-0.063,0.091-0.094,0.152-0.094,0.182
		s-0.016,0.06-0.045,0.091c-0.03,0.031-0.09,0.099-0.183,0.206c-0.09,0.107-0.243,0.265-0.455,0.479
		c-0.031,0.03-0.122,0.099-0.274,0.205s-0.312,0.214-0.477,0.319c-0.169,0.106-0.32,0.197-0.458,0.272
		C28.823,65.077,28.755,65.1,28.755,65.07 M54.868,67.487c-0.151-0.062-0.249-0.077-0.295-0.047
		c-0.045,0.032-0.084,0.047-0.114,0.047l-0.821,0.865c-0.333,0.882-0.737,1.565-1.208,2.051c-0.471,0.487-1.055,0.761-1.753,0.821
		c-0.366,0-0.707-0.206-1.027-0.615c-0.318-0.411-0.607-0.866-0.866-1.368c-0.258-0.501-0.453-0.957-0.592-1.367
		c-0.137-0.411-0.19-0.6-0.159-0.569c0-0.061-0.016-0.183-0.046-0.365c-0.03-0.182-0.062-0.35-0.09-0.5
		c-0.062-0.183-0.107-0.396-0.137-0.638c-0.03-0.458-0.069-0.783-0.113-0.981c-0.046-0.196-0.069-0.325-0.069-0.387
		c0-0.275,0.031-0.501,0.092-0.685c0.061-0.182,0.142-0.349,0.251-0.5c0.104-0.153,0.211-0.312,0.316-0.478
		c0.108-0.167,0.207-0.373,0.297-0.618c0.304-0.849,0.526-1.504,0.662-1.958c0.137-0.457,0.243-0.791,0.319-1.004
		c0.076-0.211,0.122-0.333,0.136-0.363c0.015-0.031,0.054-0.046,0.114-0.046c0.031-0.183,0.038-0.364,0.024-0.547
		c-0.016-0.181-0.009-0.364,0.022-0.547c0-0.211,0.091-0.424,0.274-0.637c0.182-0.212,0.303-0.426,0.364-0.638
		c0.272-0.82,0.494-1.488,0.661-2.005c0.166-0.516,0.296-0.927,0.387-1.232c0.091-0.302,0.182-0.562,0.273-0.774
		c0.151-0.364,0.319-0.782,0.5-1.253c0.183-0.471,0.259-0.98,0.23-1.528c-0.063-0.241-0.093-0.393-0.093-0.456
		c0.03-0.181,0.054-0.364,0.07-0.547c0.013-0.181,0.023-0.378,0.023-0.59c0-0.122-0.023-0.229-0.07-0.319
		c-0.044-0.091-0.083-0.197-0.114-0.319c0-0.061,0.031-0.153,0.091-0.274c0.061-0.12,0.107-0.243,0.138-0.365L52.5,46.383
		c0-0.362-0.108-0.75-0.32-1.16c-0.213-0.412-0.479-0.783-0.799-1.117c-0.318-0.334-0.69-0.606-1.116-0.82
		c-0.426-0.212-0.866-0.304-1.321-0.275c-0.336,0-0.661,0.13-0.98,0.388c-0.318,0.26-0.631,0.563-0.936,0.914
		c-0.302,0.348-0.584,0.705-0.842,1.069c-0.259,0.364-0.478,0.667-0.659,0.911c-0.185,0-0.351,0.19-0.502,0.57
		c-0.153,0.381-0.295,0.805-0.433,1.276c-0.138,0.472-0.267,0.919-0.388,1.345c-0.121,0.424-0.243,0.699-0.365,0.82
		c-0.121,0.457-0.227,0.934-0.32,1.435c-0.089,0.502-0.166,0.988-0.225,1.458c-0.064,0.472-0.108,0.906-0.139,1.299
		c-0.03,0.396-0.045,0.716-0.045,0.958c0.031,0.183,0.06,0.358,0.092,0.525c0.028,0.167,0.044,0.341,0.044,0.523
		c0,0.121-0.017,0.227-0.044,0.319c-0.032,0.091-0.047,0.198-0.047,0.319c0,0.061,0.015,0.122,0.047,0.182
		c0.028,0.062,0.044,0.122,0.044,0.182c0.03,0.182,0.03,0.358,0,0.524c-0.03,0.168-0.044,0.343-0.044,0.525
		c0.061,1.458,0.205,2.597,0.432,3.418c0.229,0.82,0.358,1.262,0.389,1.322c0.06,0.182,0.104,0.386,0.135,0.615
		c0.03,0.228,0.046,0.432,0.046,0.614c0.03,0.154,0.046,0.32,0.046,0.501c0,0.183-0.062,0.351-0.182,0.501
		c-0.09,0.092-0.205,0.245-0.342,0.457c-0.136,0.212-0.304,0.417-0.502,0.614c-0.197,0.198-0.417,0.381-0.66,0.547
		c-0.242,0.167-0.516,0.25-0.821,0.25c-0.062,0.03-0.128,0.039-0.204,0.023c-0.078-0.015-0.146-0.023-0.206-0.023
		c-0.061,0.03-0.176,0.106-0.343,0.228s-0.349,0.25-0.547,0.387c-0.197,0.137-0.403,0.257-0.615,0.364
		c-0.212,0.106-0.38,0.16-0.501,0.16c-0.244,0-0.487-0.076-0.728-0.228c-0.247-0.152-0.367-0.365-0.367-0.638
		c-0.031-0.364,0.007-0.736,0.113-1.116c0.107-0.381,0.22-0.646,0.343-0.799l1.503-1.414c0.091-0.06,0.235-0.105,0.433-0.135
		c0.198-0.031,0.387-0.084,0.57-0.161c0.183-0.075,0.343-0.166,0.478-0.273c0.138-0.106,0.206-0.265,0.206-0.478
		c0-0.152-0.054-0.303-0.16-0.456c-0.105-0.151-0.28-0.304-0.524-0.457c-0.395-0.151-0.631-0.242-0.707-0.271
		c-0.076-0.03-0.13-0.047-0.159-0.047c-0.516,0.032-0.951,0.221-1.299,0.572c-0.351,0.347-0.691,0.691-1.025,1.024l-0.867,1.139
		c-0.151,0.457-0.349,0.713-0.592,0.773c-0.243,0.062-0.454,0.23-0.637,0.502c-0.153,0.183-0.222,0.373-0.205,0.57
		c0.015,0.196-0.009,0.417-0.069,0.661l0.046,0.456c0,0.111,0.033,0.28,0.055,0.432c-0.012,0.007-0.022,0.018-0.033,0.024
		c-0.107,0.06-0.175,0.09-0.206,0.09c-0.062,0.06-0.174,0.152-0.343,0.275c-0.166,0.121-0.264,0.181-0.295,0.181
		c-0.213,0.062-0.387,0.137-0.524,0.229c-0.136,0.091-0.25,0.167-0.342,0.227c-0.335,0.273-0.676,0.457-1.026,0.547
		c-0.348,0.09-0.783,0.137-1.299,0.137c-0.242,0.031-0.532-0.007-0.865-0.114c-0.333-0.106-0.623-0.251-0.865-0.433
		c-0.031,0-0.077-0.051-0.137-0.159c-0.062-0.107-0.13-0.219-0.206-0.342c-0.076-0.121-0.143-0.244-0.205-0.365
		c-0.062-0.123-0.106-0.197-0.137-0.228c-0.092-0.151-0.168-0.235-0.229-0.25c-0.061-0.014-0.105-0.022-0.137-0.022
		c-0.031,0-0.044-0.023-0.044-0.068v-0.433c-0.031-0.183,0.083-0.349,0.34-0.502c0.258-0.152,0.493-0.273,0.707-0.365
		c0.212-0.181,0.388-0.333,0.525-0.456c0.137-0.121,0.266-0.234,0.387-0.34c0.122-0.107,0.212-0.175,0.275-0.206
		c0.12-0.092,0.294-0.228,0.523-0.411c0.227-0.183,0.371-0.38,0.433-0.593v-0.045c0.149-0.212,0.265-0.373,0.341-0.479
		c0.077-0.106,0.135-0.212,0.182-0.32c0.046-0.106,0.099-0.219,0.16-0.341c0.062-0.122,0.151-0.305,0.273-0.547
		c0.061-0.062,0.091-0.166,0.091-0.319c0-0.03-0.016-0.129-0.045-0.296c-0.032-0.167-0.07-0.333-0.116-0.5
		c-0.044-0.167-0.082-0.326-0.113-0.479c-0.029-0.153-0.045-0.244-0.045-0.275c0-0.03-0.031-0.074-0.092-0.137
		c-0.031-0.028-0.061-0.044-0.09-0.044c-0.183-0.304-0.381-0.485-0.594-0.547c-0.211-0.06-0.456-0.105-0.728-0.137
		c-0.154-0.029-0.335-0.007-0.547,0.068c-0.214,0.077-0.396,0.176-0.547,0.297c-0.304,0.152-0.684,0.411-1.14,0.775
		c-0.455,0.364-0.821,0.758-1.093,1.185c-0.608,0.728-1.025,1.382-1.253,1.959c-0.229,0.577-0.388,1.292-0.479,2.142
		c-0.122,0.152-0.198,0.281-0.229,0.388c-0.031,0.106-0.031,0.267,0,0.478c-0.059,0.183-0.059,0.35,0,0.501
		c0.017,0.041,0.014,0.099,0.025,0.143c-0.014,0.014-0.032,0.025-0.046,0.041c-0.258,0.273-0.54,0.554-0.843,0.843
		c-0.305,0.289-0.653,0.539-1.049,0.752c-0.425,0.213-0.896,0.427-1.413,0.637c-0.517,0.215-0.942,0.322-1.276,0.322
		c-0.274,0.152-0.622,0.152-1.047,0c-0.425-0.152-0.867-0.366-1.323-0.64c-0.454-0.273-0.874-0.553-1.252-0.843
		c-0.379-0.289-0.646-0.51-0.798-0.661c-0.152-0.09-0.327-0.273-0.524-0.546c-0.198-0.274-0.387-0.57-0.57-0.889
		c-0.183-0.32-0.341-0.622-0.478-0.913c-0.137-0.288-0.206-0.508-0.206-0.66c-0.213-0.12-0.41-0.417-0.593-0.888
		c-0.182-0.47-0.318-0.766-0.41-0.889c-0.091-0.302-0.221-0.638-0.387-1.003c-0.167-0.365-0.25-0.622-0.25-0.774
		c0.029-0.243,0.05-0.44,0.068-0.592c0.016-0.151,0.023-0.274,0.023-0.366v-0.226c0.121-0.183,0.258-0.321,0.41-0.411
		c0.153-0.092,0.288-0.167,0.41-0.229c0.122-0.059,0.244-0.128,0.365-0.204c0.12-0.076,0.228-0.189,0.318-0.342
		c0.122-0.183,0.296-0.342,0.525-0.479c0.228-0.137,0.341-0.327,0.341-0.569c0.334-0.151,0.592-0.417,0.774-0.797
		c0.183-0.38,0.351-0.737,0.502-1.071c0.029-0.091,0.074-0.244,0.136-0.456c0.06-0.211,0.121-0.44,0.182-0.683
		c0.06-0.244,0.122-0.465,0.183-0.662c0.06-0.198,0.121-0.311,0.182-0.342l0.5-0.229c0.063-0.059,0.123-0.303,0.183-0.728
		c0.031-0.182,0.061-0.411,0.092-0.683c0-0.061-0.007-0.107-0.022-0.138c-0.017-0.031-0.022-0.075-0.022-0.138
		c0-0.333,0.098-0.712,0.296-1.138c0.198-0.424,0.296-0.667,0.296-0.728c0-0.273,0.038-0.547,0.114-0.821
		c0.074-0.273,0.114-0.548,0.114-0.82c0-0.244,0.022-0.494,0.068-0.752c0.044-0.259,0.069-0.509,0.069-0.752
		c0-0.182,0.013-0.365,0.044-0.546c0.03-0.183,0.046-0.351,0.046-0.503c0-0.212,0.007-0.402,0.023-0.568
		c0.015-0.167,0.037-0.358,0.068-0.57c0-0.243-0.039-0.509-0.116-0.797c-0.076-0.288-0.127-0.555-0.158-0.797l-0.229-0.458
		c0-0.212-0.053-0.47-0.159-0.773c-0.106-0.303-0.236-0.577-0.389-0.82c-0.152-0.304-0.319-0.609-0.501-0.913
		c-0.335-0.333-0.608-0.713-0.819-1.139l-0.775-0.774c-0.335-0.183-0.646-0.411-0.935-0.684c-0.289-0.273-0.509-0.457-0.661-0.546
		c-0.304-0.212-0.661-0.388-1.07-0.525c-0.411-0.138-0.723-0.206-0.935-0.206c-0.061,0-0.144-0.007-0.25-0.021
		c-0.107-0.015-0.19-0.023-0.251-0.023l-0.092,0.091c-0.029,0.03-0.075,0.045-0.135,0.045c-0.336,0-0.653,0.077-0.958,0.228
		c-0.304,0.152-0.576,0.304-0.821,0.457c-0.272,0.211-0.531,0.44-0.773,0.683c-0.456,0.516-0.875,1.004-1.253,1.458
		c-0.38,0.456-0.844,1.002-1.39,1.641c-0.273,0.304-0.502,0.599-0.684,0.889c-0.183,0.289-0.396,0.568-0.639,0.843
		c-0.061,0.12-0.152,0.281-0.274,0.477c-0.121,0.199-0.212,0.328-0.273,0.388c-0.062,0.182-0.166,0.411-0.319,0.685
		c-0.152,0.272-0.312,0.553-0.478,0.843c-0.167,0.289-0.326,0.554-0.48,0.797c-0.152,0.242-0.241,0.425-0.272,0.547
		c-0.032,0.152-0.083,0.273-0.16,0.364c-0.076,0.091-0.19,0.289-0.342,0.593v0.272c-0.395,0.669-0.66,1.398-0.797,2.188
		c-0.136,0.79-0.235,1.336-0.295,1.64c-0.062,0.092-0.137,0.319-0.229,0.684c-0.091,0.365-0.175,0.775-0.252,1.231
		c-0.075,0.455-0.144,0.888-0.203,1.297c-0.062,0.41-0.093,0.692-0.093,0.843c0.031,0.183,0.046,0.312,0.046,0.388v0.16
		c0,0.272-0.062,0.562-0.183,0.866c-0.121,0.305-0.181,0.607-0.181,0.912c0,0.304-0.01,0.539-0.024,0.705
		C1.006,59.335,1,59.691,1,60.24c0.031,0.393,0.047,0.759,0.047,1.093v1.002c0,0.03,0.022,0.084,0.066,0.16
		c0.045,0.075,0.069,0.144,0.069,0.204v1.367c0,0.456-0.031,0.884-0.091,1.276c0,0.214,0.038,0.42,0.114,0.616
		c0.075,0.199,0.114,0.45,0.114,0.753l0.091,0.318c0,0.152,0.008,0.335,0.023,0.547c0.014,0.213,0.031,0.419,0.044,0.615
		c0.016,0.199,0.029,0.38,0.045,0.548c0.016,0.167,0.038,0.266,0.069,0.295v0.32c0.06,0.214,0.129,0.433,0.205,0.662
		c0.076,0.228,0.19,0.417,0.342,0.568c0,0.306,0.142,0.502,0.433,0.594c0.287,0.09,0.508,0.258,0.66,0.5
		c0.09,0.093,0.251,0.19,0.479,0.297c0.228,0.105,0.389,0.159,0.479,0.159c0.274,0,0.584-0.06,0.935-0.183
		c0.348-0.123,0.69-0.279,1.026-0.479c0.333-0.196,0.63-0.417,0.888-0.66c0.257-0.243,0.433-0.486,0.524-0.73
		c0-0.212,0.061-0.388,0.182-0.524c0.121-0.136,0.252-0.272,0.389-0.411c0.137-0.135,0.264-0.295,0.386-0.477
		c0.122-0.183,0.182-0.411,0.182-0.684c0.334-0.82,0.516-1.359,0.547-1.618c0.029-0.257,0.044-0.417,0.044-0.479
		c0.031-0.03,0.054-0.097,0.069-0.205c0.015-0.106,0.023-0.175,0.023-0.205l0.091-2.006c0-0.029-0.039-0.121-0.115-0.273
		c-0.076-0.151-0.128-0.227-0.16-0.227l-0.501-0.091l-0.547,0.273c-0.153,0.152-0.281,0.296-0.387,0.433
		c-0.105,0.137-0.19,0.327-0.251,0.568C7.456,64.34,7.41,64.561,7.38,64.819c-0.031,0.258-0.061,0.523-0.09,0.798
		c-0.032,0.273-0.085,0.523-0.16,0.751c-0.076,0.228-0.174,0.403-0.295,0.524c-0.122,0.363-0.251,0.752-0.388,1.162
		c-0.136,0.411-0.281,0.769-0.434,1.071c-0.425,0.759-0.926,1.14-1.503,1.14c-0.272,0-0.496-0.16-0.661-0.479
		c-0.168-0.319-0.289-0.668-0.364-1.048c-0.076-0.38-0.13-0.738-0.161-1.071C3.295,67.335,3.28,67.153,3.28,67.12v-0.273
		c-0.154-0.122-0.183-0.289-0.091-0.501c0.091-0.212,0.06-0.395-0.092-0.546c-0.03-0.608-0.085-0.981-0.159-1.117
		c-0.078-0.136-0.116-0.266-0.116-0.388c0-0.181-0.007-0.326-0.021-0.433c-0.016-0.106-0.023-0.205-0.023-0.296
		c0-0.184,0.031-0.357,0.091-0.523c0.061-0.167,0.092-0.343,0.092-0.524c0-0.061-0.023-0.167-0.069-0.319
		c-0.045-0.153-0.069-0.395-0.069-0.73c0-0.212-0.021-0.402-0.067-0.569c-0.044-0.167-0.069-0.311-0.069-0.434
		c0-0.12,0.024-0.242,0.069-0.364c0.046-0.121,0.067-0.258,0.067-0.411c0-0.09-0.013-0.174-0.044-0.25
		c-0.03-0.076-0.044-0.158-0.044-0.251c0-0.151,0.021-0.302,0.067-0.454c0.046-0.153,0.068-0.334,0.068-0.547
		c0-0.243-0.009-0.471-0.022-0.685c-0.016-0.212-0.024-0.438-0.024-0.683c0-1.033,0.062-1.883,0.183-2.553
		c0.121-0.667,0.266-1.213,0.434-1.642c0.166-0.423,0.311-0.757,0.433-1.001c0.121-0.241,0.182-0.47,0.182-0.684v-0.272
		c-0.091-0.334,0.091-0.82,0.547-1.458c-0.062-0.031-0.04-0.16,0.067-0.387c0.106-0.23,0.235-0.487,0.388-0.775
		c0.151-0.289,0.289-0.57,0.411-0.842c0.121-0.275,0.183-0.489,0.183-0.641c0.09-0.333,0.242-0.616,0.454-0.843
		c0.212-0.227,0.319-0.417,0.319-0.567c0.274-0.731,0.532-1.285,0.775-1.666c0.243-0.378,0.464-0.667,0.66-0.864
		c0.198-0.199,0.371-0.333,0.524-0.411c0.151-0.076,0.275-0.174,0.365-0.297c0-0.183,0.115-0.326,0.343-0.431
		c0.228-0.107,0.341-0.176,0.341-0.207c0.12-0.122,0.258-0.29,0.411-0.501c0.153-0.211,0.304-0.425,0.456-0.639
		c0.151-0.212,0.295-0.396,0.433-0.547c0.136-0.15,0.266-0.228,0.387-0.228c0.212-0.242,0.432-0.403,0.661-0.479
		c0.228-0.076,0.539-0.114,0.935-0.114c0.638,0,1.071,0.138,1.299,0.411c0.227,0.275,0.387,0.456,0.479,0.546
		c0.73,0.639,1.267,1.216,1.617,1.732c0.35,0.516,0.593,1.003,0.729,1.458c0.137,0.455,0.222,0.867,0.252,1.231
		c0.03,0.365,0.09,0.699,0.182,1.005c0,0.271,0.022,0.567,0.068,0.887c0.045,0.32,0.068,0.647,0.068,0.98
		c0,0.699-0.038,1.344-0.114,1.937c-0.075,0.594-0.168,1.116-0.273,1.572c-0.107,0.458-0.205,0.814-0.296,1.072
		c-0.09,0.257-0.152,0.386-0.182,0.386c0,0.335-0.1,0.745-0.296,1.232c-0.197,0.485-0.388,0.927-0.571,1.321
		c0,0.032-0.054,0.16-0.158,0.387c-0.107,0.227-0.222,0.473-0.342,0.729c-0.122,0.259-0.251,0.494-0.388,0.707
		c-0.136,0.214-0.22,0.319-0.25,0.319c-0.183,0.364-0.328,0.653-0.433,0.866c-0.107,0.214-0.198,0.373-0.273,0.478
		c-0.077,0.108-0.152,0.191-0.229,0.253c-0.075,0.06-0.159,0.122-0.25,0.182l-0.638,0.409c-0.152,0.091-0.334,0.114-0.546,0.07
		c-0.214-0.046-0.435-0.114-0.662-0.205c-0.228-0.093-0.45-0.176-0.661-0.252c-0.213-0.075-0.411-0.114-0.593-0.114
		c-0.546,0-0.997,0.152-1.345,0.456c-0.351,0.303-0.524,0.607-0.524,0.911c0,0.244,0.076,0.457,0.228,0.639s0.334,0.358,0.547,0.524
		s0.409,0.302,0.593,0.409c0.183,0.108,0.303,0.189,0.365,0.251c0.302,0.425,0.5,0.935,0.591,1.527
		c0.091,0.591,0.259,1.117,0.502,1.571c0.242,0.608,0.531,1.164,0.867,1.665c0.333,0.501,0.652,1.011,0.956,1.525
		c0.121,0.123,0.198,0.212,0.229,0.274c0.029,0.061,0.061,0.122,0.091,0.182v0.183c0.577,0.608,0.957,1.012,1.139,1.207
		c0.183,0.199,0.319,0.358,0.41,0.479c0.334,0.212,0.57,0.364,0.708,0.455c0.136,0.09,0.342,0.26,0.615,0.5
		c0.364,0.335,0.63,0.488,0.797,0.458c0.167-0.03,0.341,0,0.524,0.09c0.152,0.062,0.266,0.138,0.341,0.229
		c0.076,0.092,0.176,0.168,0.296,0.228c0.426,0.091,0.866,0.197,1.323,0.319c0.456,0.121,0.759,0.182,0.911,0.182
		c0.303,0,0.575-0.046,0.82-0.136c0.243-0.093,0.486-0.136,0.73-0.136c0.333-0.062,0.576-0.182,0.729-0.365
		c0.15-0.183,0.273-0.306,0.365-0.365c0.182,0,0.333-0.023,0.454-0.068c0.122-0.044,0.259-0.069,0.411-0.069
		c0.335,0,0.57-0.12,0.707-0.365c0.137-0.241,0.356-0.393,0.662-0.453l0.82-0.594c0.06-0.029,0.212-0.114,0.455-0.25
		c0.029-0.017,0.063-0.043,0.091-0.061c0.062,0.084,0.115,0.188,0.183,0.265c0.183,0.212,0.365,0.396,0.547,0.546
		c0.151,0.214,0.342,0.373,0.569,0.478c0.229,0.108,0.418,0.224,0.571,0.344c0.151,0.152,0.243,0.258,0.272,0.318
		c0.031,0.061,0.108,0.104,0.229,0.137c0.061,0,0.22,0.046,0.479,0.138c0.258,0.09,0.401,0.166,0.433,0.227
		c0.06,0,0.143-0.008,0.25-0.022c0.105-0.015,0.189-0.007,0.251,0.022l0.821,0.092l0.137-0.135l0.271-0.094
		c0.062-0.03,0.13-0.06,0.206-0.09c0.075-0.031,0.145-0.047,0.205-0.047c0.03,0,0.115,0.007,0.251,0.023
		c0.136,0.016,0.235,0.023,0.297,0.023c0.181-0.152,0.377-0.274,0.59-0.365c0.212-0.091,0.44-0.243,0.684-0.455
		c0.184-0.395,0.487-0.639,0.912-0.731l0.183-0.228c0.212-0.242,0.416-0.4,0.615-0.477c0.155-0.06,0.318-0.18,0.481-0.305
		c0.098,0.218,0.201,0.427,0.339,0.601c0.167,0.212,0.371,0.349,0.615,0.409l1.321,0.549c0.031,0.03,0.061,0.045,0.092,0.045h0.181
		c0.547-0.03,1.087-0.122,1.618-0.274c0.532-0.151,0.996-0.439,1.391-0.865l0.5-0.319c0.153-0.152,0.312-0.251,0.48-0.295
		c0.166-0.046,0.326-0.114,0.478-0.206c0.366-0.243,0.684-0.44,0.958-0.593c0.274-0.152,0.577-0.364,0.911-0.639
		c0.153,0,0.297,0.114,0.435,0.342c0.136,0.228,0.257,0.479,0.364,0.752c0.106,0.273,0.197,0.532,0.272,0.775
		c0.076,0.243,0.116,0.38,0.116,0.411c0.12,0.333,0.296,0.668,0.523,1.001c0.228,0.335,0.449,0.64,0.661,0.913
		c0.212,0.273,0.402,0.479,0.571,0.615c0.165,0.137,0.25,0.159,0.25,0.068c0.333,0.152,0.585,0.273,0.75,0.365
		c0.167,0.091,0.327,0.165,0.479,0.228c0.212,0,0.44,0.014,0.685,0.045c0.243,0.031,0.486,0.031,0.729,0
		c0.395,0,0.744-0.099,1.048-0.297c0.304-0.197,0.553-0.409,0.751-0.638c0.199-0.228,0.35-0.432,0.457-0.614
		c0.106-0.183,0.16-0.289,0.16-0.32c0.18-0.272,0.386-0.577,0.614-0.912c0.228-0.333,0.433-0.667,0.615-1.001
		c0.182-0.333,0.326-0.653,0.431-0.957c0.108-0.304,0.162-0.547,0.162-0.729c-0.06-0.062-0.068-0.145-0.022-0.25
		C55.073,67.538,55.021,67.487,54.868,67.487"/>
</g>
</svg>
